<svg id="svg" version="1.1" viewBox="0 0 226.62697156199783 300" width="226.62697156199783" height="300" xmlns="http://www.w3.org/2000/svg"><g xmlns="http://www.w3.org/2000/svg" id="svg" fill="#000000" fill-rule="evenodd" stroke="none" stroke-width="1" stroke-linecap="butt" stroke-linejoin="miter" stroke-miterlimit="10" stroke-dasharray="" stroke-dashoffset="0" font-family="none" font-weight="none" font-size="none" text-anchor="none" style="mix-blend-mode: normal"><path d="M188.10545,1.24589c-0.22623,0.7011 -0.89981,5.13389 -1.49798,9.85202c-0.59715,4.71812 -1.29927,8.7912 -1.55912,9.05207c-0.26087,0.25985 -4.50209,-2.56796 -9.42504,-6.28438l-8.95119,-6.75721l-4.8292,5.34789c-2.6556,2.94195 -4.83226,5.57819 -4.83531,5.85842c-0.00408,0.28023 4.34516,3.49019 9.66451,7.13323c5.31834,3.64304 9.53,7.05069 9.3588,7.57346c-0.1712,0.52175 -4.52451,3.47287 -9.67572,6.55646c-5.15019,3.08461 -9.3639,6.20184 -9.3639,6.92841c0,1.00579 5.83091,11.14211 7.7365,13.44818c0.16814,0.20381 4.74462,-2.72591 10.17097,-6.50857l9.86526,-6.87848l-0.38418,12.11427l-0.38418,12.11325l6.62372,-0.35259c3.64304,-0.19464 7.03235,-0.60531 7.53168,-0.91305c0.50646,-0.31284 0.61142,-5.07784 0.23845,-10.77526l-0.6695,-10.21377l2.30913,1.91884c1.26972,1.0547 4.68042,4.17702 7.57855,6.93656c2.9124,2.77381 5.8839,4.7813 6.64512,4.48884c0.75714,-0.29042 3.33326,-3.31695 5.72493,-6.72562l4.3472,-6.19878l-3.94366,-2.4895c-2.1685,-1.36958 -6.3068,-3.79386 -9.19576,-5.38763c-2.88794,-1.59275 -5.25821,-3.16512 -5.26636,-3.49223c-0.00815,-0.32711 4.37675,-1.69669 9.74298,-3.04385c5.36725,-1.34716 10.23211,-2.74222 10.81093,-3.10092c1.10973,-0.68581 -4.10059,-16.18837 -5.44164,-16.18837c-0.39335,0 -5.16242,2.06354 -10.59591,4.58565c-5.43451,2.52211 -10.0976,4.58565 -10.36357,4.58565c-0.26495,0 -0.15693,-5.20624 0.24049,-11.56909l0.72249,-11.56909l-3.29657,-0.65931c-5.1665,-1.0333 -9.18251,-0.77752 -9.63292,0.61448M85.14945,26.33653c-9.14073,2.38963 -17.4377,8.86661 -21.31003,16.63776c-3.04181,6.10401 -3.63489,16.83749 -1.24628,22.55427c1.32169,3.16206 1.78535,3.39134 9.22531,4.54795c4.30847,0.6695 10.44611,2.26429 13.63976,3.54318c5.55475,2.22557 5.80136,2.48033 5.70964,5.89409c-0.05299,1.96164 -1.3655,6.39545 -2.91647,9.851l-2.82068,6.28438l3.63082,4.43178c1.99731,2.43651 9.61764,10.06907 16.93328,16.96079l13.30246,12.52902l4.83531,-4.09651c6.74294,-5.7127 31.22318,-30.68921 39.19814,-39.99197c3.64508,-4.25345 7.88324,-9.87545 9.41791,-12.49335c2.59344,-4.42464 6.04491,-13.84968 5.33362,-14.56199c-0.17222,-0.17222 -2.677,1.27991 -5.56698,3.22524c-6.57786,4.42974 -9.43625,4.50311 -12.94784,0.32915c-4.13626,-4.91582 -8.92877,-15.06335 -8.29901,-17.57221c0.321,-1.27991 3.51465,-4.07613 7.71103,-6.7511c3.93958,-2.51192 7.16788,-4.87709 7.17298,-5.25617c0.00611,-0.37908 -2.4253,-1.88114 -5.4019,-3.33733c-7.4043,-3.62266 -14.17781,-4.28707 -21.63,-2.12061c-4.97186,1.44499 -7.06496,2.8431 -12.39043,8.27353c-3.52382,3.59413 -6.76842,6.53506 -7.20966,6.53506c-0.44124,0 -3.14066,-2.4844 -5.99905,-5.52112c-2.85839,-3.03672 -7.08126,-6.48207 -9.38428,-7.65702c-4.61011,-2.35193 -14.21857,-3.48408 -18.98765,-2.2378M34.70729,72.88496c0,0.30775 1.46333,4.26262 3.25072,8.78814c3.17837,8.04119 3.2069,8.25825 1.27379,9.61764c-26.92796,18.9316 -39.25419,39.30718 -39.23177,64.85536c0.00815,10.28205 1.58562,18.41495 5.21032,26.87191c2.50478,5.84212 10.04563,17.33783 13.49506,20.57123l2.51497,2.35804l5.13695,-5.41514c2.82476,-2.97863 6.89172,-6.31393 9.03577,-7.41245c2.14507,-1.09852 4.08123,-2.12163 4.30338,-2.27244c0.22215,-0.15082 -2.83903,-3.6889 -6.80307,-7.86286c-4.93212,-5.19096 -8.43862,-10.10575 -11.10441,-15.56064c-3.72355,-7.62135 -3.89576,-8.42231 -3.89576,-18.16325c0,-9.36492 0.26597,-10.75182 3.28333,-17.1218c2.09513,-4.42464 5.41209,-9.05819 9.1713,-12.81536c6.5585,-6.55442 16.96385,-13.88943 18.42311,-12.98758c0.52175,0.32201 3.14168,4.49394 5.82276,9.27117c3.79284,6.75721 5.16854,8.44065 6.19878,7.58467c4.48986,-3.72559 25.50539,-40.59931 24.55361,-43.07964c-1.21367,-3.1641 -50.63883,-10.21785 -50.63883,-7.22699M156.26983,101.77762l-8.36525,8.87578l7.02522,5.25719c8.6842,6.49838 16.09869,15.27837 20.56613,24.35388c3.17531,6.44844 3.40459,7.60505 3.40459,17.14829c0,9.49943 -0.23947,10.71921 -3.33326,17.00359c-1.83324,3.72355 -5.36215,9.02762 -7.84146,11.78512c-4.83022,5.37234 -14.81471,13.50117 -16.58273,13.50117c-0.59104,0 -3.1804,-3.37911 -5.75448,-7.50824c-6.95083,-11.15332 -6.89886,-11.13905 -11.63532,-2.99596c-8.74942,15.04399 -19.542,38.3768 -18.31815,39.60168c1.89642,1.8954 47.28825,5.41922 50.02231,3.88252c1.34818,-0.75816 1.08119,-1.92597 -1.9219,-8.40601c-1.91782,-4.13829 -3.48102,-8.0361 -3.47388,-8.66178c0.00815,-0.62467 3.02857,-3.60432 6.71237,-6.62066c13.90064,-11.38057 24.95205,-28.66541 28.48708,-44.55316c3.46573,-15.57593 0.3373,-33.6281 -8.38053,-48.35925c-3.75921,-6.35164 -19.44825,-23.47955 -21.32327,-23.2788c-0.50748,0.05401 -4.68755,4.09244 -9.28747,8.97463M42.7281,197.13061c-9.95086,3.66139 -18.41088,13.14349 -20.18094,22.61745c-1.20857,6.46679 0.19565,14.46722 3.65323,20.81885c4.29217,7.88732 16.69686,22.05188 36.46305,41.63873l17.95741,17.79436l18.3477,-18.30388c10.09251,-10.06703 21.14596,-21.57905 24.5638,-25.5808c7.0405,-8.24194 13.08541,-16.85379 12.49845,-17.80353c-0.21705,-0.35055 -3.6298,-0.95585 -7.58365,-1.34512c-9.72362,-0.95891 -17.03212,-3.24664 -18.37317,-5.75244c-1.4776,-2.76056 0.66441,-9.92335 6.62474,-22.15481c2.54453,-5.22255 4.62641,-9.90195 4.62641,-10.3972c0,-1.43174 -7.11082,-3.02347 -13.5348,-3.02959c-10.9006,-0.01121 -17.52126,4.40019 -26.37972,17.57425l-6.06121,9.01335l11.77901,12.55449c6.478,6.90497 11.77799,12.87447 11.77799,13.26578c0,0.86924 -23.72208,28.14468 -24.12664,27.74013c-0.15897,-0.15897 2.56491,-5.83295 6.05306,-12.61054l6.34246,-12.32317l-4.07002,-4.64883c-2.23882,-2.55675 -7.65498,-8.53339 -12.03682,-13.28106l-7.96578,-8.63427l5.27757,-9.79087c5.07071,-9.40568 5.20828,-9.86832 3.49834,-11.75761c-0.97929,-1.08221 -4.10059,-3.12436 -6.93758,-4.53776c-5.90734,-2.94297 -15.81744,-3.41886 -22.21289,-1.06591"/></g></svg>