<svg id="svg" version="1.1" viewBox="0 0 243.86206955956618 300" width="243.86206955956618" height="300" xmlns="http://www.w3.org/2000/svg"><g xmlns="http://www.w3.org/2000/svg" id="svg" fill="#000000" fill-rule="evenodd" stroke="none" stroke-width="1" stroke-linecap="butt" stroke-linejoin="miter" stroke-miterlimit="10" stroke-dasharray="" stroke-dashoffset="0" font-family="none" font-weight="none" font-size="none" text-anchor="none" style="mix-blend-mode: normal"><path d="M180.91591,2.89713c-26.38966,1.82875 -40.75626,3.21683 -42.39872,4.09515c-4.83827,2.58989 -5.64849,5.97097 -4.88434,20.38063c0.38157,7.1868 0.91738,13.99503 1.19179,15.12774c0.37657,1.55534 2.05609,2.47472 6.86231,3.75564c3.50026,0.9324 6.56186,1.69555 6.80523,1.69555c0.24236,0 0.68503,-5.65951 0.98348,-12.5759c0.42364,-9.79572 0.91337,-12.98552 2.21733,-14.42568c2.31648,-2.55985 16.08618,-5.02255 32.11527,-5.74263c20.46075,-0.92038 33.2009,2.21333 37.53942,9.23288c5.09766,8.2474 8.00904,30.90845 8.70108,67.71778c0.62594,33.31307 0.24837,38.32761 -3.01854,40.10728c-4.66,2.53982 -53.90302,0.19529 -68.99269,-3.28394c-2.58989,-0.5969 -5.21784,-1.69955 -5.84078,-2.44968c-0.62294,-0.75113 -1.49124,-6.5899 -1.9299,-12.9755c-0.43766,-6.3866 -1.01953,-11.83479 -1.29294,-12.1082c-0.27341,-0.27341 -2.38759,1.76165 -4.69906,4.52079l-4.20131,5.01854l1.09264,13.79974c0.6009,7.59041 1.34001,14.92744 1.64247,16.30451c0.79119,3.60342 5.26291,7.90288 8.84429,8.50278c5.62646,0.94342 84.97371,-4.98449 87.41438,-6.52981c1.21583,-0.77016 2.96646,-2.80221 3.88884,-4.51579c1.5954,-2.96245 1.43115,-6.23237 -3.35304,-66.75333c-5.50828,-69.69375 -5.17578,-67.72679 -11.93293,-70.55004c-1.7977,-0.75113 -4.07212,-1.30897 -5.0536,-1.23986c-0.98148,0.0691 -19.74668,1.37006 -41.70068,2.89135M109.26522,50.46863c0.4647,2.48574 1.50226,7.03758 2.30547,10.1142c0.80321,3.07662 1.24888,6.14724 0.98849,6.82326c-0.25939,0.67602 -3.67853,2.77217 -7.59842,4.658c-15.75568,7.57939 -31.76775,21.08769 -40.4558,34.12729c-23.64954,35.49935 -15.94296,79.88006 19.6916,113.40244c9.34505,8.79121 12.08116,9.50028 19.61648,5.08464c5.48324,-3.21383 7.7196,-7.39411 7.79572,-14.57491l0.05909,-5.59942l-9.13373,-8.92241c-15.0396,-14.68908 -23.65355,-28.23944 -27.49132,-43.247c-4.03607,-15.78172 -1.24086,-28.85337 9.00754,-42.12431c6.25941,-8.10518 30.19839,-23.25896 34.27351,-21.69561c0.89034,0.34251 3.24087,5.10267 5.34203,10.82026c2.0631,5.61544 4.18829,10.66002 4.7231,11.21085c2.37857,2.45269 38.86241,-40.93553 38.86241,-46.21746c0,-0.78418 -2.02204,-2.29245 -4.49375,-3.35204c-11.22888,-4.81223 -46.7062,-15.02258 -52.21247,-15.02658c-1.97497,-0.001 -2.0651,0.31547 -1.27992,4.51879M98.15252,162.30272c-5.78069,1.08964 -10.644,2.11418 -10.80724,2.27642c-0.16224,0.16325 0.68203,1.95394 1.87682,3.97898l2.17327,3.68253l9.13473,-0.668l9.13473,-0.667l7.51129,5.03757c14.54386,9.75566 63.82092,50.77031 64.84446,53.97312c0.57086,1.78669 -3.90787,3.7276 -18.81929,8.15626c-27.28801,8.10518 -60.73629,16.18933 -66.98468,16.18933c-4.20232,0 -7.79472,-1.93891 -18.59996,-10.03809c-26.69713,-20.01108 -51.38123,-45.53143 -50.40676,-52.11433c0.4627,-3.13171 4.31549,-5.70357 13.28997,-8.87133c4.23637,-1.49525 7.71459,-2.91438 7.72962,-3.15374c0.14121,-2.24638 -1.61342,-7.94594 -2.44568,-7.94594c-3.48724,0 -40.75125,7.50228 -43.02967,8.66302c-5.86181,2.98649 -5.1207,3.88985 34.74122,42.34164c25.79076,24.87839 38.84338,36.78128 41.81284,38.12931c2.51378,1.14071 6.53983,1.96796 9.63748,1.98098c7.16377,0.03005 109.24219,-18.75319 112.16058,-20.63802c2.80522,-1.81172 3.65149,-3.75064 2.51879,-5.77468c-0.4677,-0.83626 -17.74367,-17.7637 -38.3917,-37.61754c-33.59049,-32.29955 -38.06121,-36.25749 -42.48085,-37.60051c-6.31649,-1.92089 -11.57139,-1.77567 -24.59997,0.68002M0.60791,201.76503c-0.3345,0.87131 -0.60791,1.94392 -0.60791,2.38258c0,0.98849 74.32471,72.5861 77.53153,74.68725c1.27391,0.83526 4.96947,1.97397 8.21134,2.5308c5.46521,0.93841 9.81876,0.29144 59.77985,-8.88535c53.64963,-9.85281 58.21349,-10.99653 59.51946,-14.91442c0.1973,-0.59389 -0.74612,-2.36656 -2.09915,-3.93892l-2.4587,-2.8583l-53.92204,9.80273c-29.65757,5.3911 -55.50042,9.7777 -57.42831,9.74665c-4.53782,-0.07211 -13.53634,-2.47672 -16.33756,-4.36556c-1.20481,-0.81222 -17.22589,-15.94396 -35.60251,-33.62454c-18.37662,-17.68057 -33.99009,-32.14732 -34.69515,-32.14732c-0.70606,0 -1.55634,0.71307 -1.89084,1.58438M2.16325,219.44961c-0.63896,0.63896 -1.16175,1.89685 -1.16175,2.7942c0,1.88483 74.37679,73.61564 78.65422,75.85701c6.59792,3.4572 12.49478,2.82324 67.0648,-7.21484c28.64305,-5.26792 53.32314,-10.08716 54.84543,-10.7091c3.94793,-1.61342 4.66201,-5.42015 1.59339,-8.48976l-2.41463,-2.41363l-51.9641,9.51931c-34.89545,6.39361 -54.2946,9.51029 -59.05977,9.48926c-12.87936,-0.05508 -13.59543,-0.56986 -50.83641,-36.52389c-18.25744,-17.62649 -33.72669,-32.36865 -34.37767,-32.75924c-0.64998,-0.39159 -1.70456,-0.18828 -2.34352,0.45068"/></g></svg>