<svg id="svg" version="1.1" viewBox="0 0 256.88481925768247 300" width="256.88481925768247" height="300" xmlns="http://www.w3.org/2000/svg"><g xmlns="http://www.w3.org/2000/svg" id="svg" fill="#000000" fill-rule="evenodd" stroke="none" stroke-width="1" stroke-linecap="butt" stroke-linejoin="miter" stroke-miterlimit="10" stroke-dasharray="" stroke-dashoffset="0" font-family="none" font-weight="none" font-size="none" text-anchor="none" style="mix-blend-mode: normal"><path d="M123.10637,1.15418c-25.52373,5.69035 -47.91853,25.62371 -60.07813,53.47367c-3.79642,8.69549 -3.96401,10.96649 -1.11693,15.12189c3.35841,4.90098 8.50696,7.3148 14.53819,6.8149c7.31385,-0.60655 9.48772,-2.47286 13.82976,-11.87299c7.68807,-16.64065 19.03448,-30.94461 30.34282,-38.2537c8.91545,-5.76272 14.23063,-7.29957 24.861,-7.19006c10.46278,0.10855 16.17312,1.91107 25.83034,8.15274c8.24796,5.33137 19.31538,16.45497 18.25654,18.34795c-0.43992,0.78461 -4.41726,4.33442 -8.84023,7.88898c-4.42202,3.55361 -8.02705,6.89012 -8.00991,7.41383c0.0657,1.98629 18.47173,10.06285 38.09182,16.71492c13.90308,4.71339 15.797,4.92383 16.65684,1.85298c1.91011,-6.82537 0.19615,-53.29751 -2.05294,-55.62945c-0.50943,-0.52847 -4.05352,1.08265 -8.90498,4.04685c-4.43249,2.70901 -8.63836,4.92478 -9.3468,4.92478c-0.70844,0 -3.41364,-2.19577 -6.01315,-4.87907c-10.93697,-11.2931 -28.94213,-22.25387 -42.81283,-26.06077c-8.267,-2.26909 -26.88823,-2.7271 -35.23141,-0.86745M119.49087,66.70937c-13.2213,4.71625 -20.49326,17.43479 -18.06705,31.59877c3.31461,19.35157 18.55553,34.36015 31.38357,30.90557c15.52848,-4.18111 27.29577,-29.4706 21.55401,-46.32169c-2.14436,-6.29309 -9.66674,-13.81547 -15.95983,-15.95983c-5.59322,-1.90535 -13.91831,-2.00343 -18.9107,-0.22281M45.97815,90.01542c-5.65988,1.56447 -8.15083,2.94801 -12.45192,6.91202c-6.98725,6.44068 -8.49648,10.13332 -8.49648,20.77987c0,8.4384 0.23138,9.52581 3.4384,16.18741c8.51743,17.68712 20.79796,24.10019 32.88233,17.16912c10.22473,-5.8646 18.43079,-20.9684 18.43079,-33.92309c0,-9.88955 -6.39307,-20.18569 -15.35233,-24.72579c-5.04285,-2.55571 -13.77929,-3.69168 -18.45079,-2.39954M197.21041,90.51152c-14.85433,4.64483 -22.57572,18.53648 -18.96212,34.11734c1.95392,8.42412 5.40945,15.0819 10.87794,20.95793c10.3209,11.09123 21.4664,11.03791 31.88062,-0.1514c8.61456,-9.25539 13.307,-23.41556 11.16931,-33.70884c-3.31747,-15.98363 -19.77054,-25.96555 -34.96575,-21.21502M106.6752,130.54964c-10.2333,3.70596 -17.73378,9.48201 -23.3708,17.99944l-2.45192,3.70501l5.41516,3.52409c13.10132,8.5241 22.07962,23.70312 22.07962,37.32625v4.5877h19.99621h19.99621v-3.60884c0,-13.74977 9.5658,-30.27521 21.95012,-37.91947c3.11465,-1.92249 5.66369,-3.6793 5.66369,-3.90307c0,-0.22377 -1.23881,-2.20815 -2.75376,-4.40964c-5.67226,-8.24415 -15.43612,-15.29805 -25.24093,-18.23464c-3.39364,-1.01695 -4.13064,-0.88269 -8.5698,1.56542c-6.85203,3.77928 -14.54486,3.77547 -21.74064,-0.00952l-5.17426,-2.72234l-5.7989,2.0996M28.89282,155.31066c-16.03029,6.58923 -25.49326,18.15656 -28.31463,34.60963c-1.41592,8.25748 -0.1733,17.35195 3.09275,22.63666c2.37098,3.83737 9.0859,7.46239 15.79415,8.52695l3.95639,0.6275l1.10455,-5.5818c1.36165,-6.8806 2.73186,-11.4445 4.46392,-14.8667c1.09122,-2.15578 1.95296,-2.61569 4.87241,-2.60522c4.46106,0.01714 18.57933,6.73587 33.90595,16.13503c11.01601,6.75491 11.44354,6.9244 16.10456,6.37212c6.27119,-0.74272 12.77472,-4.08303 16.08647,-8.26034c5.04095,-6.35975 5.66559,-18.60409 1.57399,-30.84462c-4.31252,-12.90136 -15.67417,-23.6736 -29.69627,-28.15752c-3.3546,-1.07218 -4.04971,-0.95696 -8.3527,1.3845c-2.66902,1.45306 -6.94249,2.78709 -9.90574,3.09275c-4.53723,0.46848 -5.99696,0.1514 -11.28357,-2.45192c-3.34032,-1.6435 -6.4483,-2.97848 -6.90821,-2.9661c-0.45896,0.01238 -3.38222,1.06932 -6.49401,2.34908M182.61889,155.03357c-18.77358,7.15388 -29.51821,22.45479 -29.51821,42.03393c0,8.77833 1.5997,13.65074 5.89126,17.94231c6.43116,6.43116 9.94954,6.96344 46.00365,6.96344c36.06078,0 39.83625,-0.57132 46.27217,-7.00819c4.22967,-4.22967 5.61036,-8.72501 5.61703,-18.28986c0.01524,-19.6239 -12.06533,-36.05602 -31.03507,-42.21675c-4.84765,-1.57494 -4.86384,-1.57303 -9.95906,1.07027c-7.0777,3.67168 -14.6934,3.68216 -21.73492,0.02857c-2.77566,-1.43973 -5.32947,-2.59665 -5.67321,-2.56904c-0.3447,0.02761 -2.98324,0.94744 -5.86365,2.04533M32.68638,206.50475c-2.42049,5.80747 -5.93316,28.67646 -6.87298,44.74865c-0.71129,12.17198 -1.01314,11.97582 10.63322,6.89203c4.18397,-1.82632 8.06323,-3.32127 8.62027,-3.32127c0.55704,0 2.84708,2.60141 5.08856,5.77986c13.02229,18.46602 31.53687,32.14343 50.45043,37.27102c10.53895,2.8566 27.39195,2.82994 37.7357,-0.06094c20.74368,-5.797 38.19847,-19.18684 52.22057,-40.06002c5.97982,-8.90307 6.55971,-11.75967 3.41554,-16.84538c-2.71091,-4.38679 -6.60351,-6.93964 -11.63494,-7.62903c-7.6614,-1.05028 -10.35042,0.60465 -17.39194,10.70464c-10.93126,15.67798 -24.60771,27.59096 -37.67,32.81282c-6.52638,2.60808 -19.90289,3.53838 -26.28835,1.82632c-7.90802,-2.11865 -15.69893,-6.86251 -22.67094,-13.80119c-7.62522,-7.58904 -14.26777,-16.86442 -13.50315,-18.85547c0.28376,-0.73986 4.83718,-3.84498 10.11999,-6.9006c5.28186,-3.05561 9.60389,-5.88174 9.60389,-6.28071c0,-1.60446 -25.30853,-17.27767 -38.89643,-24.08686c-11.53019,-5.7789 -11.46925,-5.76938 -12.95945,-2.19387"/></g></svg>