<svg id="svg" version="1.1" viewBox="0 0 247.6165874062148 300" width="247.6165874062148" height="300" xmlns="http://www.w3.org/2000/svg"><g xmlns="http://www.w3.org/2000/svg" id="svg" fill="#000000" fill-rule="evenodd" stroke="none" stroke-width="1" stroke-linecap="butt" stroke-linejoin="miter" stroke-miterlimit="10" stroke-dasharray="" stroke-dashoffset="0" font-family="none" font-weight="none" font-size="none" text-anchor="none" style="mix-blend-mode: normal"><path d="M135.50042,0.65904c-7.49741,2.47896 -12.26455,6.43832 -15.20028,12.62593c-1.6932,3.56862 -1.88643,4.5684 -1.89254,9.78375c-0.0104,9.40157 3.51053,17.39551 10.57134,24.00016c6.41019,5.99622 12.45594,7.23875 19.18105,3.94163c8.38712,-4.11162 15.38862,-16.77975 15.44304,-27.94179c0.02201,-4.4033 -0.22686,-5.73634 -1.62716,-8.72466c-3.51237,-7.49558 -12.71032,-13.9871 -20.30068,-14.32708c-2.05092,-0.09172 -4.8295,0.19751 -6.17477,0.64206M70.4507,21.32783c-4.02479,1.15693 -10.59886,6.35332 -13.65017,10.7872c-1.7036,2.47651 -1.97265,3.43043 -2.18667,7.74262c-0.48919,9.85468 3.03969,19.76991 9.49085,26.66623c6.07693,6.49641 12.59352,8.77725 17.67251,6.18639c6.94157,-3.54111 13.42147,-10.94435 15.52682,-17.73855c1.64917,-5.3242 2.23926,-14.72271 1.19912,-19.11011c-0.69587,-2.93635 -1.38624,-3.91472 -6.04758,-8.56873c-4.35194,-4.3446 -5.75896,-5.37556 -8.13213,-5.96197c-3.40169,-0.83957 -10.95903,-0.8414 -13.87275,-0.00306M198.08831,21.72468c-11.88176,3.18583 -18.53532,15.15014 -15.53905,27.94362c2.96142,12.64795 12.23886,23.02851 21.42764,23.97692c2.80182,0.28862 3.85847,0.08255 6.69698,-1.30613c6.34232,-3.10267 12.3844,-11.69586 15.04619,-21.3989c1.6131,-5.87942 1.50303,-14.02684 -0.23726,-17.57345c-1.44922,-2.95408 -8.31986,-9.84612 -11.23603,-11.27149c-3.26716,-1.5972 -10.92784,-1.77269 -16.15848,-0.37056M150.4818,54.89099c-4.28895,1.4321 -12.07804,1.52504 -17.84679,0.2128c-5.39085,-1.22603 -10.34265,-0.90928 -14.07943,0.89949c-3.17116,1.53544 -9.69937,7.3317 -14.50625,12.8797l-3.12652,3.60959l3.69581,2.24537c10.11029,6.14175 17.35821,17.56734 19.18716,30.24769l0.75335,5.21963l9.62477,0.16877c5.29362,0.09233 12.14531,-0.08438 15.22658,-0.3938c6.76057,-0.67814 7.24854,-1.11779 8.73873,-7.88204c2.06437,-9.36917 3.85174,-12.29512 14.62121,-23.9384c3.54783,-3.83645 6.45116,-7.35066 6.45116,-7.81049c0,-2.40252 -9.66146,-10.59642 -16.92773,-14.35705c-5.07043,-2.62388 -6.77525,-2.78287 -11.81205,-1.10128M55.33419,76.02451c-8.85858,4.70476 -16.96747,13.48079 -20.07932,21.73155c-2.01056,5.33031 -2.50525,5.14136 12.81244,4.89555l13.44349,-0.21585l1.52871,1.64184c1.41803,1.52321 1.52199,2.04664 1.43332,7.24793c-0.05198,3.08311 -0.67141,8.20735 -1.37584,11.38645c-0.70443,3.17911 -1.28045,6.453 -1.28045,7.27544v1.49508l16.9687,-0.37117c18.2736,-0.39991 23.15998,-0.88971 29.80987,-2.98894c3.31547,-1.04686 4.90472,-1.97815 7.04919,-4.13119c3.41698,-3.43043 4.4088,-6.49519 4.35866,-13.46734c-0.10089,-13.99321 -7.41425,-26.36477 -20.10255,-34.00527c-4.24309,-2.55478 -5.91122,-2.6141 -15.77814,-0.56134c-9.0781,1.88888 -9.69325,1.88888 -15.08594,0.00489c-5.79626,-2.02524 -9.80638,-2.00689 -13.70215,0.06237M185.20311,75.00272c-2.6251,0.52527 -7.95847,3.91289 -11.94413,7.58669c-8.02879,7.4008 -12.48835,19.10706 -11.54238,30.29722c1.03157,12.2034 6.83579,16.33581 25.06169,17.84434c11.72155,0.97043 42.55565,-0.35772 51.21305,-2.20562c3.44082,-0.735 6.86697,-5.46851 8.82005,-12.18689c1.37339,-4.72433 0.94536,-13.11267 -0.94474,-18.53165c-2.80916,-8.05019 -9.91339,-16.60425 -16.78158,-20.20528c-3.0721,-1.61126 -3.15893,-1.61921 -21.12373,-2.01484c-9.92134,-0.21891 -18.58913,-0.54178 -19.26176,-0.71788c-0.67263,-0.17672 -2.24598,-0.11618 -3.49647,0.13392M43.472,108.49189c-9.82595,0.7613 -29.86919,4.76224 -31.39056,6.26588c-0.70626,0.6977 0.70688,3.23598 5.10284,9.16432l3.75146,5.06003l-2.14631,3.14731c-1.18078,1.7305 -3.56129,5.21046 -5.28995,7.73283c-15.40574,22.47878 -17.75873,48.91143 -6.3735,71.60239c4.69376,9.35571 6.55695,10.31452 21.58112,11.10395c12.3312,0.64817 14.15342,0.36567 14.15342,-2.19706c0,-1.87665 -3.87742,-6.27261 -9.42298,-10.68325c-9.02429,-7.17761 -13.73945,-13.16465 -16.37433,-20.79109c-1.18934,-3.44082 -1.40519,-5.25693 -1.36055,-11.42865c0.05565,-7.62093 1.04442,-11.85485 4.62099,-19.7907c3.45978,-7.67658 10.1482,-15.24125 12.64305,-14.29895c0.56501,0.21341 3.25677,2.36706 5.98215,4.7867c5.33215,4.7335 7.12196,5.68008 8.53021,4.51092c1.43515,-1.19117 8.26911,-24.3377 10.72666,-36.33319c1.35016,-6.58936 1.27189,-6.72694 -4.33848,-7.62949c-3.90494,-0.62861 -4.88087,-0.6494 -10.39524,-0.22197M150.07455,139.90141c-2.6728,1.32264 -4.48463,4.08472 -4.48463,6.83701c0,0.82122 0.57663,3.11857 1.28167,5.10467c0.76802,2.16588 1.41314,5.86964 1.61065,9.25176l0.3302,5.63972l-1.82467,1.69809c-1.00283,0.93374 -4.33114,2.63061 -7.39529,3.7698c-5.01112,1.86319 -5.76018,1.99344 -7.44666,1.29512c-2.77736,-1.1502 -7.10178,-6.31174 -8.56445,-10.22035c-1.80816,-4.83317 -3.35766,-6.76118 -6.09161,-7.57996c-3.57229,-1.07071 -6.39796,-0.25743 -9.52876,2.74251c-2.40558,2.30469 -2.72906,2.92779 -2.72906,5.25265c0,2.33404 0.33509,2.97181 2.90455,5.52843c2.1512,2.1402 3.7912,3.14548 6.32092,3.87559c3.70376,1.06826 8.50575,4.77508 10.0473,7.75607c1.07866,2.08577 0.47573,4.1263 -3.44755,11.66651c-3.2372,6.22308 -4.33543,6.96297 -10.33103,6.96297c-4.17889,0 -4.8503,-0.16999 -6.64684,-1.68158c-1.64612,-1.38501 -2.58719,-1.68158 -5.33459,-1.68158c-6.35577,0 -9.47618,2.37501 -9.85468,7.49986c-0.30146,4.08411 1.26027,6.77341 4.88943,8.42075c3.44816,1.5654 5.01295,1.49141 9.00656,-0.42498c2.62633,-1.26027 4.56962,-1.67547 8.86958,-1.89499c6.98499,-0.35588 7.56223,0.06849 10.40808,7.65395c2.97181,7.92178 2.87398,9.14353 -1.01323,12.63877c-1.72561,1.55134 -5.58836,4.08655 -8.5828,5.63361c-5.78403,2.9871 -7.2357,4.62405 -7.2357,8.15782c0,2.34871 1.29696,5.49235 2.82812,6.85352c0.639,0.56868 2.43554,1.37462 3.99177,1.79043c2.44043,0.65307 3.21396,0.60965 5.63055,-0.31308c3.0935,-1.18139 5.71249,-3.86275 6.23164,-6.37962c0.62371,-3.02073 2.34321,-5.70699 5.43059,-8.48312c2.78715,-2.50525 3.29223,-2.73089 5.52904,-2.46795c4.10612,0.48307 10.93273,3.89883 12.26577,6.13747c1.70482,2.86297 1.5599,11.72583 -0.266,16.25081c-1.60637,3.98015 -1.09884,6.26038 2.20929,9.92134c3.70498,4.10184 7.94991,3.83951 12.09333,-0.74723c2.54744,-2.81956 2.72783,-4.77386 0.92395,-10.01612c-0.86709,-2.51932 -1.22297,-5.14687 -1.22297,-9.02368c0,-5.35538 0.04097,-5.50948 1.98732,-7.44972c1.93902,-1.9329 7.48029,-4.43326 11.15959,-5.03558c3.31241,-0.54239 7.29929,3.26594 14.54599,13.89293c2.73211,4.00645 6.90733,5.21902 10.7927,3.13569c2.97915,-1.59781 4.45711,-4.57696 4.12874,-8.32292c-0.22075,-2.51748 -0.63166,-3.35583 -2.47468,-5.04475c-1.21502,-1.11412 -2.72111,-2.02524 -3.34665,-2.02524c-1.58436,0 -7.8802,-4.23514 -10.74623,-7.22836c-2.90944,-3.03969 -2.97548,-4.4724 -0.4525,-9.8076c1.01017,-2.13592 2.02768,-5.02396 2.26005,-6.41814c0.23298,-1.39357 0.73378,-2.73639 1.1129,-2.98343c1.22542,-0.79799 6.02924,-0.49102 13.22519,0.84507c8.72588,1.62043 11.00733,1.67424 13.09127,0.3088c3.92573,-2.57252 5.27956,-8.42931 2.7046,-11.70259c-2.8379,-3.60776 -10.14697,-4.632 -13.41719,-1.88031c-3.07577,2.58841 -11.44882,2.92534 -14.11612,0.56807c-1.28351,-1.1343 -7.21857,-13.0393 -7.21857,-14.47995c0,-1.70849 7.69309,-8.49352 11.95575,-10.54444c6.11485,-2.94185 7.30602,-4.38251 7.30602,-8.83228c0,-3.8707 -1.23826,-5.89593 -4.70843,-7.70165c-3.38824,-1.76291 -8.92829,-0.77536 -10.14147,1.80694c-0.33815,0.71972 -1.32937,2.84524 -2.20318,4.72311c-1.75496,3.77347 -8.67269,10.95169 -10.5634,10.96086c-1.84852,0.00978 -11.72583,-3.85541 -13.51992,-5.29056c-1.61432,-1.29084 -1.66507,-1.51465 -1.58374,-7.04369c0.05993,-4.09389 0.44944,-6.73244 1.37584,-9.32208c0.71055,-1.9861 1.29084,-4.6002 1.28962,-5.8091c-0.00611,-6.30991 -6.96542,-9.85346 -13.24598,-6.74406M77.35742,170.08245c-3.22742,1.4058 -4.53416,3.67869 -4.53416,7.88754c0,2.87153 0.277,3.99483 1.23581,5.01601c1.52932,1.62716 2.71255,7.91322 2.17077,11.5271c-0.2183,1.45717 -0.94902,3.24209 -1.62288,3.96548c-1.40764,1.51098 -5.56634,3.68175 -10.13108,5.28995c-2.7101,0.95453 -3.41881,0.99794 -5.07226,0.31308c-2.48324,-1.02852 -7.37511,-6.53188 -9.72444,-10.94007c-2.77614,-5.20801 -5.68986,-7.42159 -9.76296,-7.41547c-2.30591,0.00306 -5.37373,2.03441 -6.57162,4.35071c-1.18445,2.29123 -0.97532,7.816 0.3565,9.42114c0.45984,0.554 3.02624,2.1084 5.7027,3.45428c6.29768,3.16627 11.40602,7.88204 11.40541,10.52976c0,3.14792 -4.29935,13.28572 -6.35822,14.99482c-1.78187,1.47796 -9.27439,0.78148 -15.57879,-1.44861c-7.08649,-2.50709 -12.917,0.65062 -12.917,6.99477c0,3.5197 1.84668,6.57285 4.90411,8.1089c2.95836,1.48652 5.47401,1.33915 9.08238,-0.53321c2.51993,-1.30735 3.97282,-1.61371 7.85268,-1.6559c5.58775,-0.06054 7.05959,0.58764 8.71794,3.8389c2.00322,3.92634 4.29751,10.46495 4.29751,12.24742c0,3.38273 -7.19778,10.41052 -10.66246,10.41052c-2.4545,0 -5.19395,1.97265 -6.50681,4.68458c-1.82528,3.77103 -1.39174,7.61115 1.14714,10.15003c4.8026,4.8026 14.79915,1.267 14.79915,-5.23431c0,-1.80633 2.45511,-5.19212 6.90794,-9.52632l3.37968,-3.28918l6.19373,2.67769c3.40658,1.47245 6.89755,3.2372 7.75729,3.92145c2.34932,1.8687 2.46123,5.2288 0.5271,15.81972c-1.89621,10.37812 -1.76352,11.21401 2.09067,13.17994c3.00606,1.5336 5.71065,1.56662 8.91544,0.10884c4.49258,-2.04419 4.73595,-3.32953 2.50464,-13.23069c-1.21991,-5.41347 -1.86503,-11.9588 -1.37156,-13.92411c0.24031,-0.95575 1.11535,-1.80633 2.37501,-2.30652c1.09761,-0.43599 4.40819,-1.8638 7.35738,-3.17238c3.13447,-1.39113 5.83356,-2.23008 6.49763,-2.01912c1.61921,0.51365 6.62666,5.69292 8.29662,8.58096c0.77842,1.34527 1.58741,3.4341 1.79838,4.64117c1.24865,7.15131 12.65712,8.25504 15.71576,1.52015c1.44922,-3.19011 1.43699,-4.28345 -0.08255,-7.42159c-1.04442,-2.15854 -2.52054,-3.39496 -9.32514,-7.81294c-15.92,-10.33715 -17.87858,-12.67791 -17.46461,-20.87364c0.19078,-3.78142 0.47757,-4.79648 1.74701,-6.17905c2.19095,-2.38662 8.5082,-6.37228 10.09989,-6.37228c2.32364,0 3.03296,-1.47429 2.14142,-4.45283c-1.69504,-5.66418 -5.93079,-12.66874 -7.66129,-12.66874c-0.38524,0 -1.28534,0.67263 -2.00017,1.49447c-3.37845,3.88598 -15.1746,2.1989 -19.3541,-2.76819c-2.04297,-2.42759 -2.42759,-5.8036 -1.60331,-14.06414c0.79615,-7.9762 1.55867,-11.52404 3.17116,-14.75329c1.61738,-3.24087 1.52382,-8.38162 -0.19323,-10.56401c-2.43493,-3.09595 -6.88593,-4.14158 -10.65023,-2.50281"/></g></svg>