<?xml version="1.0" encoding="utf-8"?>
<!DOCTYPE svg PUBLIC "-//W3C//DTD SVG 1.0//EN" "http://www.w3.org/TR/2001/REC-SVG-20010904/DTD/svg10.dtd">
<svg version="1.0" xmlns="http://www.w3.org/2000/svg" width="162px" height="170px" viewBox="0 0 162 170" preserveAspectRatio="xMidYMid meet">
 <g fill="#231f1f">
  <path d="M91.70 153.80 c-5.10 -1.25 -8.90 -4.30 -11.55 -9.45 -1.30 -2.40 -1.40 -3.05 -1.40 -8.60 0 -9.20 -0.95 -7.85 22.85 -31.55 15.45 -15.35 20.75 -20.30 22.65 -21.25 2.20 -1.05 3.20 -1.20 8.50 -1.20 5.60 0 6.20 0.10 8.95 1.45 3.75 1.85 6.25 4.35 8.10 8.10 1.35 2.75 1.45 3.35 1.45 8.70 0 9.25 0.75 8.20 -22.40 31.15 -10.80 10.65 -20.60 20 -21.80 20.70 -4.10 2.45 -10.10 3.20 -15.35 1.95z m50.85 -49.05 c1.95 -3.40 1.95 -6.10 -0.05 -9.60 -1.75 -3.05 -4.10 -5 -7.30 -5.95 -4.60 -1.35 -6.50 -0.25 -17.70 10.75 l-9.25 9.05 7.75 7.75 7.75 7.75 8.65 -8.60 c4.85 -4.80 9.30 -9.75 10.15 -11.15z"/>
  <path d="M34.10 147.15 c-1.15 -0.45 -2.10 -3.05 -2.10 -5.75 l0 -2.65 48.25 -48.25 48.25 -48.25 3.20 0 c2.70 0 3.40 0.20 4.50 1.20 1.15 1.10 1.30 1.60 1.30 4.75 l0 3.55 -47.90 47.85 -47.85 47.90 -3.50 -0.05 c-1.95 0 -3.80 -0.15 -4.15 -0.30z"/>
  <path d="M51.75 95.30 c-1.95 -0.85 -2.75 -2.65 -2.75 -6.25 0 -2.15 0.25 -3.25 1 -4.20 0.75 -0.95 1 -2 1 -4.25 l0 -3 -2.30 -0.55 c-1.30 -0.35 -3.15 -1 -4.20 -1.55 l-1.85 -0.95 -2.25 2.35 c-1.70 1.75 -2.40 2.90 -2.65 4.40 -0.20 1.25 -0.80 2.55 -1.60 3.25 -1.05 1.05 -1.75 1.20 -4.95 1.20 -3.10 0 -3.85 -0.15 -4.75 -1.10 -1.20 -1.20 -1.80 -4.90 -1.25 -7.90 0.40 -1.95 2.60 -3.75 4.70 -3.75 0.70 0 2.10 -0.95 3.60 -2.45 l2.45 -2.45 -1.45 -4.15 -1.45 -4.20 -2.50 -0.15 c-1.95 -0.10 -2.80 0.10 -4.30 1.15 -1.45 0.95 -2.50 1.25 -4.55 1.25 -3.45 0 -5 -0.65 -5.95 -2.45 -0.90 -1.80 -1 -5.80 -0.10 -7.55 1.50 -3 7.25 -3.85 10.35 -1.55 1.10 0.80 2.20 1.05 4.50 1.05 2.70 0 3 -0.10 3 -1 0 -0.55 0.60 -2.40 1.30 -4.10 l1.25 -3.05 -2.35 -2.40 c-1.35 -1.35 -2.85 -2.45 -3.35 -2.45 -1.35 0 -3.70 -1.35 -4.55 -2.60 -0.55 -0.75 -0.80 -2.25 -0.80 -4.30 0 -2.85 0.15 -3.35 1.45 -4.65 1.30 -1.30 1.80 -1.45 4.50 -1.45 1.65 0 3.55 0.25 4.25 0.55 1.30 0.60 2.80 3.15 2.80 4.80 0 0.50 1.10 2 2.40 3.30 l2.40 2.35 3.10 -1.25 c1.70 -0.70 3.55 -1.25 4.10 -1.25 0.90 0 1 -0.30 1 -3.10 0 -2.35 -0.25 -3.45 -1 -4.40 -0.75 -0.95 -1 -2.05 -1 -4.65 0 -3.15 0.10 -3.55 1.50 -4.95 1.45 -1.45 1.70 -1.50 5.10 -1.30 3.10 0.15 3.65 0.35 4.70 1.55 1 1.20 1.20 1.95 1.20 4.75 0 2.55 -0.25 3.65 -1 4.60 -0.75 0.95 -1 2.05 -1 4.40 0 2.80 0.10 3.10 1 3.10 0.55 0 2.40 0.55 4.10 1.25 l3.10 1.25 2.40 -2.35 c1.30 -1.30 2.40 -2.75 2.40 -3.20 0 -1.80 1.20 -4 2.55 -4.70 0.80 -0.45 2.75 -0.75 4.45 -0.75 2.75 0 3.25 0.15 4.55 1.45 1.30 1.35 1.45 1.80 1.45 4.80 0 3 -0.15 3.45 -1.45 4.80 -0.90 0.85 -2 1.45 -2.80 1.45 -0.95 0 -2.15 0.80 -4.05 2.60 l-2.75 2.65 1.30 3.10 c0.70 1.75 1.25 3.60 1.25 4.15 0 0.90 0.30 1 3 1 2.35 0 3.40 -0.25 4.55 -1.10 1.25 -0.90 2.20 -1.15 4.80 -1.15 3.05 0 3.35 0.15 4.70 1.65 1.25 1.35 1.45 2.05 1.45 4.40 0 3.25 -1.05 5.55 -2.80 6.20 -2.20 0.85 -6.30 0.60 -8.10 -0.50 -1.15 -0.70 -2.50 -1 -4.55 -1 l-2.95 0 -0.30 1.75 c-0.20 0.95 -0.80 2.75 -1.35 4.05 l-1.05 2.30 2.40 2.45 c1.55 1.55 2.85 2.45 3.60 2.45 1.50 0 3.10 0.85 4.20 2.20 1 1.20 1.25 6.70 0.40 8.35 -0.95 1.70 -3.40 2.60 -6.65 2.35 -2.50 -0.20 -3.20 -0.45 -4.15 -1.55 -0.65 -0.75 -1.30 -2.10 -1.45 -3.05 -0.25 -1.10 -1.20 -2.50 -2.75 -4.05 l-2.40 -2.35 -3.25 1.30 c-1.80 0.70 -3.65 1.30 -4.05 1.30 -1.25 0 -1.10 5.70 0.20 7.35 1.45 1.85 1.45 7.50 -0.05 9.10 -1.95 2.10 -5.70 2.65 -8.70 1.35z"/>
 </g>
 <g fill="#ffffff">
  <path d="M91.50 155.10 c-10.05 -2.65 -16.10 -11.10 -15.35 -21.55 0.45 -6.95 1.10 -7.85 17.05 -23.85 7.75 -7.75 16.25 -16.30 18.90 -19 8.10 -8.25 9.25 -9.15 13.80 -10.65 7.55 -2.55 17.25 0 22.15 5.90 5.95 7.15 6.55 17.20 1.45 24.95 -1.10 1.65 -9.85 10.75 -21.05 21.90 -20.50 20.25 -21.85 21.40 -27.85 22.65 -3.50 0.75 -5.20 0.65 -9.10 -0.35z m9.05 -2.80 c1.60 -0.35 3.85 -1.25 5 -1.95 1.20 -0.70 11 -10.05 21.80 -20.70 22.55 -22.35 22.35 -22.10 22.40 -29.65 0 -3.70 -0.20 -4.65 -1.45 -7.20 -1.85 -3.75 -4.35 -6.25 -8.10 -8.10 -2.60 -1.30 -3.50 -1.45 -7.45 -1.45 -7.25 0.05 -6.65 -0.45 -29.65 22.45 -23.20 23.10 -22.80 22.60 -22.80 30.05 0 3.90 0.15 4.85 1.35 7.10 2.65 5.10 6.45 8.20 11.55 9.45 3.35 0.80 4 0.80 7.35 0z"/>
  <path d="M114.25 118 l-9 -9 10 -9.80 c5.50 -5.40 10.85 -10.25 11.90 -10.80 2.75 -1.40 6.20 -1.65 9.40 -0.75 3.45 1.05 5.85 3.05 7.70 6.40 1.90 3.55 2 8.05 0.30 11.45 -1.15 2.25 -19.75 21.50 -20.80 21.50 -0.30 0 -4.55 -4.05 -9.50 -9z"/>
  <path d="M33.50 148.10 c-1.10 -0.60 -2.20 -1.75 -2.85 -3.10 -1.10 -2.15 -1.50 -5 -0.80 -5.70 0.20 -0.15 0.40 -0.70 0.45 -1.20 0.10 -0.45 0.40 -0.90 0.65 -1 0.30 -0.10 0.55 -0.45 0.55 -0.80 0 -0.55 19 -19.80 19.55 -19.80 0.15 0 6.65 -6.30 14.45 -14 8.65 -8.45 14.05 -14.15 13.75 -14.40 -0.30 -0.25 -1.50 -0.70 -2.75 -1.05 -2.75 -0.80 -5.25 -3.25 -5.95 -5.85 -0.30 -1.10 -1.20 -2.65 -2.05 -3.45 -1.45 -1.40 -1.60 -1.40 -3.40 -0.80 -3.35 1.20 -4.10 1.90 -4.10 3.95 0 1 0.55 2.95 1.25 4.35 1.45 2.80 1.40 4.55 -0.25 7.70 -0.95 1.95 -3.65 4.05 -5.15 4.05 -0.40 0 -0.85 0.25 -0.95 0.50 -0.20 0.60 -4.45 -0.70 -6.30 -1.90 -1.60 -1.05 -3.25 -4.45 -3.25 -6.70 0 -2.05 1 -4.90 1.70 -4.90 0.25 0 0.45 -1.20 0.45 -2.70 l0 -2.70 -2.45 -1.05 c-1.35 -0.55 -2.85 -1.05 -3.30 -1.05 -1.30 0 -3.15 2.20 -3.75 4.55 -1.95 7.25 -12.10 8.60 -15.50 2 -2.55 -5 -0.25 -10.55 5.05 -12.10 1.05 -0.35 2.60 -1.35 3.50 -2.25 l1.60 -1.65 -0.85 -1.90 c-1.45 -3.25 -1.60 -3.40 -3.70 -3.55 -1.30 -0.10 -2.75 0.20 -4.05 0.85 -4.15 2.15 -9.20 0.70 -11.40 -3.20 -2.55 -4.50 -0.75 -9.55 4.10 -11.80 2.70 -1.25 4.40 -1.20 7.40 0.30 1.60 0.85 3.15 1.25 4.25 1.15 1.60 -0.15 1.85 -0.40 3 -3.05 l1.25 -2.90 -1.65 -1.70 c-0.90 -0.95 -2.35 -1.80 -3.30 -1.95 -3.05 -0.60 -6.20 -4.35 -6.20 -7.45 0 -1.90 1.15 -4.80 2.45 -6.25 2.35 -2.55 5.95 -3.25 9.55 -1.80 2.30 0.95 3.60 2.55 4.55 5.60 0.40 1.40 1.20 2.65 2.25 3.40 l1.55 1.20 2.85 -1.05 2.80 -1.10 0 -2.20 c0 -1.20 -0.45 -3.05 -1 -4.15 -2.25 -4.45 -0.45 -9.50 4.15 -11.60 2.50 -1.20 4.70 -1.10 7.05 0.25 2.80 1.60 3.95 3.35 4.20 6.55 0.15 2.15 0 3.20 -0.85 4.80 -1.15 2.25 -1.40 5.60 -0.40 6.35 0.30 0.30 1.70 0.90 3 1.40 l2.40 0.90 1.50 -1.45 c0.80 -0.75 1.75 -2.30 2.05 -3.45 1.15 -3.75 4.25 -6.25 7.85 -6.25 6.65 0 10.45 6.25 7.50 12.35 -1.05 2.15 -3.05 3.60 -5.95 4.30 -0.70 0.20 -1.90 1 -2.70 1.80 l-1.40 1.45 0.90 2.45 c0.45 1.30 1.10 2.70 1.35 3.05 0.55 0.70 4.65 0.85 5.10 0.15 0.15 -0.25 1.40 -0.85 2.80 -1.30 2.10 -0.70 2.90 -0.75 4.45 -0.30 5.15 1.55 7.95 7.25 5.70 11.70 -1.20 2.30 -2.20 3.35 -4.15 4.15 -2.35 1 -5.25 0.90 -7.50 -0.25 -2.05 -1.05 -5.75 -1.25 -6.45 -0.35 -0.25 0.30 -0.85 1.65 -1.35 2.95 -0.90 2.40 -0.90 2.40 0.25 3.60 0.65 0.70 2 1.50 2.95 1.75 2.75 0.75 4.90 2.30 5.85 4.10 0.45 0.90 1 1.75 1.15 1.90 0.15 0.15 0.30 0.80 0.30 1.50 0 0.95 0.20 1.20 1 1.10 0.55 -0.10 9.50 -8.70 19.95 -19.20 12.25 -12.30 19.55 -19.25 20.70 -19.75 4.50 -1.90 10.10 2.10 10.10 7.25 0 1.15 -0.30 2.85 -0.70 3.75 -0.85 2 -94.90 95.90 -97.15 97.05 -2.15 1.05 -5.50 1 -7.65 -0.10z m54.60 -50 c47.85 -47.80 47.90 -47.85 47.90 -49.90 0 -2.70 -1.75 -4.40 -4.35 -4.35 -1.70 0.05 -4.30 2.55 -49.75 48 -26.35 26.35 -48.05 48.40 -48.20 49.05 -0.35 1.35 0.60 3.95 1.75 4.60 0.45 0.25 1.70 0.50 2.80 0.50 2 0 2.25 -0.25 49.85 -47.90z m-31.45 -4.05 c3.25 -1.25 4.40 -5.10 2.35 -7.70 -0.85 -1.05 -1 -2 -1 -5.75 l0 -4.50 1.75 -0.30 c0.90 -0.20 3.15 -1.05 4.95 -1.95 l3.25 -1.65 3.10 3.10 c2.05 2.05 3.15 3.60 3.25 4.50 0.45 4.35 5.40 6.05 8.50 2.95 2.85 -2.90 0.35 -8.25 -3.90 -8.25 -0.70 0 -2.20 -1.05 -4 -2.85 -2.75 -2.75 -3.50 -4.20 -2.40 -4.90 0.65 -0.40 2.40 -4.45 2.80 -6.50 l0.30 -1.75 4.35 0 c3.45 0 4.70 0.20 6.35 1.05 2.75 1.50 5.35 1.05 6.70 -1.20 1.40 -2.25 1.25 -4.05 -0.40 -5.90 -1.75 -1.95 -4.35 -2.20 -6.55 -0.55 -1.30 0.95 -2.15 1.10 -5.95 1.10 l-4.45 0 -0.30 -1.75 c-0.15 -0.95 -1 -3.20 -1.90 -5.05 l-1.60 -3.25 2.95 -3 c1.60 -1.65 3.50 -3.10 4.20 -3.25 2.25 -0.45 4.40 -1.80 4.70 -2.90 0.65 -2.35 0.30 -3.90 -1.15 -5.35 -1.65 -1.65 -3.75 -1.90 -6 -0.70 -1.45 0.70 -2.70 3.25 -2.25 4.40 0.10 0.35 -1.20 2.05 -3 3.80 l-3.20 3.15 -3.30 -1.60 c-1.85 -0.85 -4.10 -1.70 -5.05 -1.85 l-1.75 -0.30 0 -4.55 c0 -3.75 0.20 -4.75 1 -5.80 2.35 -3.05 0.55 -7.30 -3.35 -7.85 -1.85 -0.25 -2.25 -0.10 -3.65 1.25 -1.90 1.90 -2.05 4.65 -0.35 6.75 1 1.25 1.10 1.85 0.95 5.80 l-0.15 4.45 -1.75 0.25 c-0.95 0.15 -3.15 1 -5 1.90 l-3.25 1.60 -3 -2.95 c-1.60 -1.60 -2.95 -3.35 -2.95 -3.85 0 -1.65 -1.50 -4.20 -2.80 -4.80 -4.60 -2.10 -9.25 2.85 -6.40 6.85 0.95 1.35 3.40 2.70 4.30 2.35 0.35 -0.15 2.05 1.15 3.85 2.95 l3.25 3.25 -1.65 3.35 c-0.90 1.85 -1.75 4.10 -1.90 5.05 l-0.30 1.65 -4.45 0 c-3.75 0 -4.65 -0.15 -5.90 -1.10 -4.15 -3.05 -9.55 1.25 -7.35 5.90 1.40 2.90 4.55 3.50 7.60 1.45 1.65 -1.15 2.25 -1.25 5.85 -1.15 l4 0.15 0.85 2.75 c0.50 1.55 1.40 3.85 2.05 5.15 l1.15 2.35 -3.05 3 c-1.95 1.85 -3.50 3 -4.20 3 -2.05 0 -4.30 1.80 -4.65 3.70 -0.90 4.60 2.75 7.55 6.95 5.55 1.30 -0.65 1.90 -1.30 2.25 -2.65 0.30 -0.95 0.40 -1.95 0.25 -2.15 -0.10 -0.20 1.20 -1.85 2.95 -3.65 l3.15 -3.30 2.70 1.45 c1.50 0.80 3.80 1.75 5.15 2.05 l2.35 0.60 0 4.50 c0 3.75 -0.15 4.70 -1 5.75 -1.85 2.35 -0.95 6.30 1.75 7.45 1.85 0.80 1.90 0.80 3.40 0.25z"/>
 </g>
</svg>