<svg id="svg" version="1.1" viewBox="0 0 293.97824253470355 300" width="293.97824253470355" height="300" xmlns="http://www.w3.org/2000/svg"><g xmlns="http://www.w3.org/2000/svg" id="svg" fill="#000000" fill-rule="evenodd" stroke="none" stroke-width="1" stroke-linecap="butt" stroke-linejoin="miter" stroke-miterlimit="10" stroke-dasharray="" stroke-dashoffset="0" font-family="none" font-weight="none" font-size="none" text-anchor="none" style="mix-blend-mode: normal"><path d="M81.2389,0.79544c-6.69984,2.68122 -8.64119,10.95952 -3.96348,16.90538c2.04521,2.60043 2.56453,5.20215 2.56453,12.85214v9.59263l-4.45715,0.83732c-2.45169,0.45905 -7.58203,2.47862 -11.40062,4.48793l-6.94347,3.65189l-7.19223,-7.26788c-4.11351,-4.1571 -7.19223,-8.41294 -7.19223,-9.94268c0,-3.7237 -4.45459,-9.00407 -8.19752,-9.71957c-7.31019,-1.39767 -14.99481,6.35491 -12.71494,12.82522c1.43998,4.0853 5.94715,7.97825 9.23744,7.97825c2.24781,0 5.53297,2.24268 10.53381,7.19223l7.26788,7.19223l-3.65189,6.94347c-2.00931,3.81859 -4.02888,8.94893 -4.48793,11.40062l-0.83732,4.45715h-9.59263c-7.64999,0 -10.25171,-0.51932 -12.85214,-2.56453c-3.69421,-2.90561 -10.17477,-3.29927 -13.44327,-0.8168c-5.36756,4.07889 -5.17522,14.57166 0.32057,17.51318c4.01093,2.14651 10.89413,1.47461 13.41378,-1.30919c1.94007,-2.14395 3.94938,-2.56453 12.23794,-2.56453h9.91576l0.82321,4.38406c0.45264,2.41066 2.43374,7.57819 4.4033,11.48397l3.58265,7.0999l-7.18453,7.10888c-4.26738,4.2225 -8.31036,7.10888 -9.95935,7.10888c-3.46468,0 -9.07972,4.9162 -9.52082,8.33472c-0.9835,7.63204 5.71762,14.67937 12.11484,12.74187c4.48536,-1.3592 8.59118,-5.85226 8.59118,-9.40157c0,-2.24781 2.24525,-5.53426 7.20248,-10.54407l7.20248,-7.27814l4.54178,2.67865c2.49785,1.47461 7.47945,3.6365 11.0698,4.80465l6.52801,2.12343l0.37827,9.21564c0.31544,7.70257 -0.05386,9.76189 -2.24396,12.54825c-4.8226,6.12923 -3.04025,14.26264 3.74037,17.0708c4.55974,1.88878 10.83001,-0.01282 12.9201,-3.91732c2.02213,-3.77884 1.40793,-9.59904 -1.38869,-13.15348c-2.19011,-2.78636 -2.5594,-4.84568 -2.24396,-12.54825l0.37827,-9.21564l6.52801,-2.12343c3.59034,-1.16814 8.57194,-3.33004 11.0698,-4.80465l4.54178,-2.67865l7.20248,7.27814c4.29046,4.33534 7.20248,8.4014 7.20248,10.05424c0,4.84953 5.45989,9.84395 10.76205,9.84395c9.81574,0 14.15877,-11.60194 6.73317,-17.99018c-1.94263,-1.67079 -4.78285,-3.03897 -6.31003,-3.03897c-1.65156,0 -5.70608,-2.8992 -10.0068,-7.15504l-7.23198,-7.15632l3.53905,-6.62803c1.9452,-3.64676 3.93014,-8.50527 4.40971,-10.79667l0.87322,-4.16736l10.47611,0.04103c7.17427,0.02821 11.26214,0.63472 12.96627,1.9234c2.84278,2.14908 8.77069,2.4658 12.16613,0.64883c3.9045,-2.09009 5.8061,-8.36037 3.91732,-12.9201c-2.79406,-6.746 -10.93772,-8.56553 -16.99899,-3.79807c-2.60043,2.04521 -5.20215,2.56453 -12.85214,2.56453h-9.59263l-0.87579,-4.80849c-0.48213,-2.64403 -2.5235,-7.75386 -4.53665,-11.35318l-3.66087,-6.54468l7.31661,-7.23967c5.0175,-4.96621 8.33472,-7.23967 10.56202,-7.23967c1.7862,0 4.50332,-1.16943 6.03819,-2.60043c7.99621,-7.44868 1.74645,-19.53659 -9.35925,-18.10559c-3.70318,0.477 -8.33472,6.16898 -8.33472,10.24273c0,2.53247 -1.90801,5.38167 -6.91141,10.32352l-6.91013,6.8255l-5.59196,-3.23259c-3.07487,-1.77722 -8.04237,-3.94938 -11.0403,-4.82773l-5.44963,-1.59642v-10.53894c0,-7.80387 0.4988,-10.95311 1.9234,-12.13536c2.86202,-2.37476 2.46964,-10.99414 -0.64113,-14.10492c-1.41049,-1.41049 -3.09411,-2.56453 -3.74165,-2.56453c-0.64754,0 -1.94648,-0.25261 -2.8851,-0.56035c-0.9399,-0.30903 -3.09795,-0.00513 -4.79695,0.67447M143.64162,165.78194c-97.00849,97.00721 -106.11642,106.47289 -106.11642,110.27481c0,5.40988 3.88142,9.28745 9.29899,9.28745c3.8173,0 13.17271,-9.0015 110.48895,-106.32415c94.69913,-94.70426 106.31774,-106.75371 106.31774,-110.25814c0,-5.524 -3.64035,-9.09639 -9.27206,-9.09639c-4.38791,0 -9.51569,4.91364 -110.71719,106.11642M249.28745,146.94161c-3.07103,0.61164 -7.97569,2.53119 -10.89925,4.26481c-2.92485,1.73362 -25.31448,23.24747 -49.75574,47.80798c-42.17114,42.37887 -44.54205,45.01136 -46.48211,51.62143c-4.15197,14.14339 -1.72721,26.49032 7.19094,36.62149c7.80387,8.86558 16.13603,12.66237 27.95082,12.73546c16.38863,0.1013 16.77972,-0.18978 65.752,-49.01074c48.69402,-48.544 50.93414,-51.45987 50.93414,-66.2726c0,-10.37737 -2.87997,-18.43769 -9.11819,-25.52477c-8.6835,-9.86575 -22.91408,-14.76272 -35.5726,-12.24307M271.62836,159.02568c12.98037,7.60768 17.6709,24.15147 10.72743,37.84221c-1.25149,2.46836 -12.1469,14.27418 -24.21301,26.23515l-21.93828,21.74722l-20.48034,-20.44957l-20.48034,-20.45085l20.19568,-20.29698c11.10698,-11.1634 21.86006,-21.50743 23.89501,-22.98589c9.60032,-6.97681 22.10497,-7.61153 32.29385,-1.6413"/></g></svg>