<svg id="svg" version="1.1" viewBox="0 0 215.19256499027765 300" width="215.19256499027765" height="300" xmlns="http://www.w3.org/2000/svg"><g xmlns="http://www.w3.org/2000/svg" id="svg" fill="#000000" fill-rule="evenodd" stroke="none" stroke-width="1" stroke-linecap="butt" stroke-linejoin="miter" stroke-miterlimit="10" stroke-dasharray="" stroke-dashoffset="0" font-family="none" font-weight="none" font-size="none" text-anchor="none" style="mix-blend-mode: normal"><path d="M104.71669,0.64914c-5.34707,1.58886 -9.22497,4.28702 -12.21216,8.49791c-2.9933,4.21904 -4.27114,7.25874 -5.11788,12.17715c-1.02952,5.97602 1.77408,14.28423 7.36418,21.82508c3.16753,4.27277 6.23004,6.63102 13.31536,10.25408l1.72075,0.88012l1.73948,-0.89315c9.2152,-4.73318 13.08292,-8.49384 17.03165,-16.56146c2.6082,-5.32916 3.19522,-7.35034 3.48872,-12.00903c0.31183,-4.95749 -0.24629,-7.91944 -2.26217,-12.00903c-2.71852,-5.51438 -7.28765,-9.38577 -13.86493,-11.74727c-3.48099,-1.24975 -7.84739,-1.41137 -11.203,-0.41441M169.4433,20.1579c-4.6249,1.26685 -10.37417,4.85205 -14.07743,8.7788c-6.05133,6.4173 -6.77675,16.97913 -1.89905,27.65577c3.09141,6.76658 6.95221,10.8586 13.8344,14.66282c2.52149,1.39386 4.77756,2.53818 5.01326,2.54266c0.23611,0.00407 2.34278,-1.06331 4.68148,-2.3725c6.67417,-3.73542 10.80731,-8.07576 14.38193,-15.10288c4.45555,-8.75845 4.6249,-15.10898 0.62121,-23.28733c-2.4474,-4.9986 -5.8604,-8.45354 -10.67297,-10.80405c-3.54124,-1.72971 -6.95872,-2.74783 -8.95141,-2.66722c-0.49298,0.02035 -1.81194,0.2874 -2.93142,0.59394M41.61842,21.30425c-8.1181,2.63791 -14.85537,10.05909 -16.1267,17.76359c-1.67353,10.14295 3.38492,22.40436 12.14092,29.43148c3.20336,2.57034 4.38228,3.22086 7.46025,4.11564c2.01996,0.58702 2.4763,0.59109 4.59355,0.03949c7.29701,-1.90068 15.21442,-11.13705 19.02067,-22.1882c1.264,-3.66988 1.55832,-10.37661 0.60045,-13.67197c-1.14554,-3.94059 -2.61105,-6.32611 -5.86448,-9.54453c-6.29965,-6.23207 -14.26469,-8.40184 -21.82467,-5.94549M93.52184,53.4746c-3.14677,0.69897 -6.94569,2.66804 -11.05156,5.7281c-4.21456,3.14148 -9.62188,8.48041 -9.9622,9.836c-0.34969,1.39264 0.40464,2.35906 6.74785,8.64406c9.82623,9.73545 14.26591,18.25616 14.26591,27.37854v3.61818h15.84906c14.74098,0 15.86372,-0.04966 16.0636,-0.7124c0.11805,-0.39162 0.58661,-2.92084 1.04133,-5.62022c1.89132,-11.23027 4.27603,-15.36585 14.87776,-25.80434c2.82965,-2.78609 5.3259,-5.40325 5.54695,-5.81603c0.64767,-1.21067 0.01018,-2.36761 -3.06047,-5.55224c-5.53474,-5.74031 -13.2429,-10.75683 -18.23662,-11.86858c-2.75108,-0.61266 -4.54755,-0.22797 -9.19484,1.96826c-3.99025,1.88562 -6.58787,1.90109 -11.90237,0.07124c-3.3955,-1.16874 -7.9569,-2.44414 -8.54188,-2.38796c-0.11195,0.01099 -1.21108,0.24344 -2.44251,0.51741M28.87949,73.64814c-13.1741,5.19726 -22.54196,17.29992 -24.06324,31.08831c-0.83697,7.5836 1.42846,14.14582 6.60211,19.12325c3.74478,3.60271 4.94935,3.73867 32.84611,3.70855c27.01542,-0.02931 33.38916,-0.52433 38.17405,-2.96562c3.67354,-1.87382 5.30718,-4.55895 6.66318,-10.9502c2.18279,-10.29194 -1.28273,-21.56577 -9.273,-30.16667c-4.6192,-4.97174 -10.55003,-8.79346 -16.19509,-10.43442c-2.7637,-0.80318 -3.81602,-0.65337 -7.34179,1.04702c-6.67376,3.21883 -11.27831,3.15939 -18.48128,-0.23774c-3.63975,-1.71668 -5.03443,-1.74965 -8.93105,-0.2125M154.58468,73.43645c-6.35461,2.59883 -10.47472,5.38126 -14.64491,9.89137c-4.74662,5.13254 -7.94061,11.30802 -9.38292,18.14177c-0.96846,4.58745 -1.00713,7.57098 -0.14696,11.4041c0.92531,4.12337 2.31876,6.85491 4.94487,9.69108c2.72137,2.93957 4.447,3.88563 8.11892,4.44985c4.16571,0.64035 39.97459,0.9652 49.98767,0.45349c10.53008,-0.53776 11.96303,-0.90902 14.78494,-3.82864c4.1307,-4.27358 6.04726,-8.45883 6.43969,-14.06277c1.00306,-14.31476 -8.64853,-29.31586 -22.79802,-35.43314c-4.81257,-2.08061 -6.14089,-2.11929 -10.03588,-0.29147c-7.52823,3.5331 -11.44562,3.53106 -18.90261,-0.00814c-3.45249,-1.63893 -5.15126,-1.72157 -8.3648,-0.40749M111.31962,130.37633c-2.0855,1.26278 -4.66846,4.504 -6.80444,8.53862c-0.97497,1.84206 -1.96989,3.48384 -2.21047,3.6483c-0.24059,0.16446 -9.32226,0.30328 -20.18127,0.30857c-32.69142,0.01588 -34.12395,0.45471 -35.38266,10.83825c-0.67169,5.54206 -1.01934,5.78102 -19.77744,13.59544c-2.01507,0.83982 -5.95363,2.47874 -8.75234,3.6426c-10.32573,4.29394 -16.22969,7.67601 -17.63454,10.10183c-0.70507,1.218 -0.72787,1.57257 -0.26094,4.07086c2.97417,15.91664 35.72014,95.48763 42.24205,102.64583c1.89824,2.08306 3.75333,2.54632 7.30067,1.82252c2.6542,-0.54142 9.91172,-2.98842 14.89893,-5.02384c2.34481,-0.95706 24.50004,-9.72405 30.39301,-12.02694c6.57972,-2.57115 15.08822,-5.12317 19.57349,-5.87017c3.74926,-0.62488 8.65301,-0.5459 11.77129,0.18889c1.45492,0.34277 4.8146,1.43945 7.46595,2.43641c5.16144,1.94139 7.60558,2.25078 9.606,1.21637c3.23389,-1.67231 6.90173,-8.07373 13.06419,-22.80087c6.86102,-16.39578 7.12848,-17.43873 4.97581,-19.39967c-1.47853,-1.34664 -3.18829,-2.38919 -3.91861,-2.38919c-0.76695,0 -2.55731,2.14371 -3.35642,4.01834c-0.34643,0.81254 -1.96907,4.77471 -3.60596,8.80485c-3.93733,9.69474 -4.87241,11.72325 -5.73054,12.43239c-0.95502,0.78934 -7.54655,0.69123 -12.8004,-0.19011c-10.33631,-1.73459 -19.58774,-4.18606 -37.24345,-9.86979c-9.56529,-3.0792 -12.53539,-4.37414 -14.08842,-6.14292c-1.25057,-1.42439 -1.28151,-1.55181 -1.05924,-4.34401c0.2186,-2.73928 1.69795,-9.14884 2.91921,-12.64693c0.31264,-0.89559 0.95991,-2.91066 1.43864,-4.47794c1.75617,-5.74805 7.81523,-22.17558 9.72772,-26.37426c0.46978,-1.03033 0.85366,-1.98617 0.85366,-2.12417c0,-0.138 0.75148,-1.84247 1.66987,-3.78793c0.91839,-1.94546 2.02525,-4.43398 2.46002,-5.53026c1.48953,-3.75699 7.39186,-15.1041 9.81809,-18.87534c2.74009,-4.25893 5.08938,-6.53047 8.64528,-8.35828c2.21495,-1.13862 2.78406,-1.25301 6.10628,-1.22858c8.62818,0.06391 23.5381,4.80442 37.75475,12.00333c9.17571,4.64648 10.89198,6.46818 10.89198,11.56123c0,3.13619 -0.4368,5.32305 -2.43315,12.18285c-4.60129,15.81039 -4.79954,17.11673 -2.86873,18.92012c1.39427,1.30267 4.50277,2.85896 5.70978,2.85896c0.55201,0 1.264,-0.70385 2.16122,-2.1372c4.40141,-7.032 14.93556,-34.36617 14.93556,-38.75618c0,-3.43743 -3.63975,-5.8657 -17.70822,-11.81485c-2.23897,-0.94688 -7.82622,-3.3267 -12.41611,-5.28845c-16.9889,-7.26159 -37.7287,-15.67239 -41.08797,-16.66242c-3.09466,-0.91228 -5.22779,-0.82638 -7.06212,0.28374M98.40686,153.62173c0,0.08915 -3.04337,7.46269 -6.76332,16.3852c-3.71995,8.9221 -9.05358,21.71802 -11.8523,28.43493c-9.12767,21.90528 -12.91846,32.06573 -13.76438,36.89376c-0.79382,4.52801 4.2398,7.75335 24.84891,15.92356c1.34338,0.53247 2.44251,1.12803 2.44251,1.32303c0,0.19499 -2.65623,0.7869 -5.90274,1.31489c-8.1698,1.32832 -22.35918,1.5339 -25.3826,0.3676c-1.47976,-0.57073 -2.1087,-1.08122 -2.50724,-2.03584c-0.66436,-1.59008 -2.00775,-10.94938 -2.84105,-19.79535c-0.34806,-3.6943 -0.84999,-8.64039 -1.11582,-10.99131c-0.29717,-2.63344 -0.47792,-10.68193 -0.47059,-20.96491c0.01058,-14.69253 0.11683,-17.4945 0.88907,-23.40742c0.99492,-7.62268 2.09323,-12.35098 3.41504,-14.70271c2.07939,-3.69959 11.26691,-7.24572 21.90691,-8.45558c3.09344,-0.35172 17.0976,-0.58905 17.0976,-0.28984M45.41368,171.89459c1.10239,1.32832 1.36252,8.08594 1.68045,43.64487c0.28089,31.44696 0.42337,37.15348 1.00347,40.27868c1.73052,9.31615 3.49972,10.37987 17.3622,10.4393c4.57524,0.01954 9.23433,0.15836 10.35382,0.30816l2.03543,0.27275l-2.03543,0.98474c-1.11949,0.54183 -6.86631,3.33403 -12.77028,6.20521c-5.90437,2.87117 -10.85046,5.20947 -10.99131,5.19645c-0.40831,-0.03786 -5.09346,-6.05214 -6.7792,-8.70227c-1.6088,-2.52922 -7.48305,-13.98421 -10.03385,-19.56657c-10.5769,-23.14526 -19.34512,-46.92924 -20.13161,-54.60484c-0.23082,-2.25322 -0.13271,-2.82721 0.81214,-4.75924c3.01569,-6.16328 12.12749,-13.0414 24.68119,-18.63068c3.89174,-1.73296 4.20275,-1.80176 4.81297,-1.06656M133.41623,201.93099c-4.79018,0.53247 -10.65628,1.81438 -14.04445,3.06902c-1.56728,0.5805 -4.58989,1.70732 -6.71691,2.50358c-8.37172,3.13537 -14.14785,6.73767 -16.07418,10.02448c-2.43193,4.15024 -0.60615,9.64345 4.4812,13.48064c3.01935,2.27724 6.71895,1.45492 20.14178,-4.47631c11.74564,-5.18993 15.04263,-5.90437 27.24543,-5.90437c11.39392,0 13.40411,0.53695 19.16233,5.11707c5.54084,4.40752 9.86776,9.81809 12.52847,15.66628c2.44536,5.37434 3.17201,8.7153 3.57136,16.41369c0.21738,4.19665 0.16121,5.31084 -0.2813,5.59132c-0.30409,0.19255 -1.92674,0.35661 -3.60596,0.36393c-3.03279,0.01343 -10.56754,0.92653 -11.9154,1.44393c-0.38755,0.14859 -0.70426,0.55608 -0.70426,0.90536c0,0.99736 2.57278,5.44436 7.11789,12.30457c7.93003,11.96872 15.30927,21.54826 16.61235,21.56577c1.06453,0.01425 4.47021,-3.33485 6.77757,-6.66481c6.80159,-9.81606 15.89791,-23.78561 17.01862,-26.1353c0.59435,-1.2465 0.60574,-1.48179 0.08752,-1.80339c-1.11053,-0.6892 -4.64932,-1.26604 -9.2156,-1.50092c-2.50236,-0.12905 -4.72952,-0.34562 -4.94975,-0.48199c-0.22023,-0.13597 -0.98637,-2.62814 -1.70284,-5.5384c-4.74784,-19.28487 -9.90928,-29.72376 -19.89672,-40.2396c-4.83455,-5.09101 -14.47393,-10.97299 -22.02618,-13.44075c-6.35949,-2.07817 -16.51913,-3.05233 -23.61097,-2.2638"/></g></svg>