<svg id="svg" version="1.1" viewBox="0 0 203.45726406609322 300" width="203.45726406609322" height="300" xmlns="http://www.w3.org/2000/svg"><g xmlns="http://www.w3.org/2000/svg" id="svg" fill="#000000" fill-rule="evenodd" stroke="none" stroke-width="1" stroke-linecap="butt" stroke-linejoin="miter" stroke-miterlimit="10" stroke-dasharray="" stroke-dashoffset="0" font-family="none" font-weight="none" font-size="none" text-anchor="none" style="mix-blend-mode: normal"><path d="M129.87153,0.52678c-5.87618,1.65952 -9.0964,3.58922 -13.3329,7.98978c-3.40087,3.53211 -4.66506,5.27751 -6.56195,9.05994c-2.26144,4.5087 -2.73536,7.20275 -2.14721,12.20846c1.12687,9.58976 6.98564,21.17726 13.93725,27.56625c3.80309,3.49484 9.19887,6.17957 12.42071,6.17957c5.76479,0 12.6682,-3.70385 17.3531,-9.31108c10.02884,-12.00188 13.44551,-29.22415 7.89337,-39.78888c-3.04563,-5.79638 -8.79868,-10.62995 -15.39181,-12.93189c-4.35883,-1.52221 -10.68625,-1.95603 -14.17056,-0.97214M115.15455,66.13853c-8.72901,3.36644 -13.40379,6.10301 -18.30337,10.71541c-1.98762,1.87096 -3.4673,3.53535 -3.28826,3.69859c0.17944,0.16324 2.4822,0.98065 5.11791,1.81628c7.98694,2.53242 10.23744,4.66303 9.83603,9.31351c-0.11544,1.33669 -0.5764,3.48715 -1.02399,4.77847c-0.94905,2.73738 -6.20428,13.48196 -11.86051,24.24922c-2.18407,4.15792 -3.97079,7.80345 -3.96998,8.10117c0.00122,0.80445 5.83365,2.72078 9.97416,3.27814c2.49556,0.33539 11.64219,0.47432 29.92288,0.45367c33.83695,-0.03848 41.77124,-0.58693 46.22202,-3.19551c3.74395,-2.1938 7.6236,-7.99747 8.8643,-13.25877c0.76232,-3.23399 0.78095,-10.68422 0.03646,-14.54808c-0.81903,-4.24947 -3.15824,-10.50519 -5.34474,-14.2941c-5.80125,-10.05193 -12.34213,-15.77986 -22.56621,-19.76077c-3.81281,-1.48454 -4.35235,-1.59107 -7.16143,-1.41406c-2.34772,0.14785 -4.1883,0.6327 -8.10117,2.13304c-3.44016,1.31968 -5.88023,2.00099 -7.61145,2.12534c-2.6823,0.19281 -3.66011,-0.07777 -12.32876,-3.41343c-3.80957,-1.46591 -6.08519,-1.67654 -8.41387,-0.77812M41.8961,82.52476c-0.44435,0.28111 -0.18268,1.43269 1.35492,5.96813c1.04829,3.091 2.61749,7.41621 3.48715,9.61203c0.87007,2.19582 1.58175,4.20451 1.58175,4.46374c0,0.25883 -2.61101,2.41698 -5.80246,4.79549c-7.6795,5.72388 -12.67995,10.23744 -17.88373,16.14198c-14.05066,15.94269 -21.89381,31.32924 -24.1435,47.36509c-1.16697,8.3199 -0.18187,22.44226 2.22661,31.92265c2.55713,10.06367 7.33399,20.86172 12.12866,27.41516c2.48625,3.39803 10.66073,11.95246 11.42143,11.95246c0.24304,0 1.33953,-1.32171 2.43643,-2.93667c3.64917,-5.3731 7.00305,-8.33002 14.85511,-13.09716c2.17071,-1.31806 3.94486,-2.5786 3.94203,-2.80138c-0.00324,-0.22278 -2.65435,-3.23034 -5.89238,-6.68346c-3.28219,-3.50051 -7.3267,-8.33934 -9.14095,-10.93658c-9.39533,-13.44753 -13.02141,-27.20615 -10.46954,-39.72691c2.17354,-10.6664 6.53724,-18.23816 15.99251,-27.74974c7.45226,-7.49682 14.62463,-13.15832 18.9223,-14.93653c1.76079,-0.72829 1.67937,-0.79108 3.91043,3.02174c7.66532,13.09999 10.24636,17.01245 11.22336,17.01245c1.52504,0 10.11876,-12.90111 19.83206,-29.77179c4.11742,-7.15171 10.49466,-19.83125 10.95116,-21.77391c0.2325,-0.98875 0.10329,-1.18237 -1.13092,-1.698c-5.35811,-2.23876 -27.4261,-5.95152 -44.66983,-7.51545c-5.4456,-0.49377 -14.38119,-0.51928 -15.13257,-0.04334M185.22964,132.22583c-5.37715,3.78203 -9.94418,5.45573 -18.2017,6.67091c-2.99338,0.4403 -5.48165,0.84252 -5.52986,0.89396c-0.0478,0.05144 1.8175,2.28088 4.14577,4.95427c9.10855,10.45982 12.96268,16.63777 15.66806,25.11362c5.66636,17.75452 0.22926,36.17657 -15.31161,51.87947c-4.08177,4.1243 -14.27628,12.32228 -15.32376,12.32228c-0.8004,0 -2.64949,-2.33152 -7.54867,-9.51887c-4.21585,-6.18524 -6.50483,-8.93073 -7.78563,-9.337c-1.61416,-0.5124 -2.89779,0.95756 -6.91637,7.9197c-6.09694,10.5623 -18.39613,35.1457 -20.37119,40.71768c-0.68698,1.93739 -0.68779,2.10549 -0.0162,3.52036c0.91827,1.93496 2.04473,2.63085 5.38606,3.32796c6.85075,1.42824 32.05348,3.49363 43.92372,3.59894l8.37094,0.07453l1.08718,-1.01265c0.95715,-0.89153 1.06044,-1.23057 0.86439,-2.83541c-0.23048,-1.89122 -2.36716,-7.61469 -4.8846,-13.08541c-0.8004,-1.73892 -1.45497,-3.39439 -1.45497,-3.67914c0,-0.28435 4.33291,-4.78576 9.62824,-10.00251c10.70569,-10.54691 13.91942,-14.19567 18.52413,-21.02982c3.80876,-5.65218 10.70569,-19.53677 12.09788,-24.35373c1.39907,-4.84045 1.87583,-9.85142 1.87583,-19.7227c0,-20.64177 -2.22012,-31.5824 -8.38106,-41.30299c-1.4732,-2.32463 -4.41554,-6.10787 -5.18272,-6.66402c-0.88586,-0.64202 -2.13871,-0.22521 -4.66384,1.55056M75.45883,166.26207c-7.46361,0.89315 -12.84278,3.30082 -17.345,7.76416c-3.57099,3.5394 -5.20459,6.15 -6.76974,10.8187c-5.15113,15.36386 4.60389,36.30821 20.32299,43.63491c2.38053,1.10945 3.24371,1.2974 6.01957,1.31117c2.81151,0.01418 3.58882,-0.15068 5.87335,-1.24434c3.57586,-1.71218 6.38737,-4.06111 9.46378,-7.90593c6.63364,-8.29073 10.38408,-18.58205 10.38408,-28.49342c0,-4.91376 -0.47837,-7.76294 -1.7219,-10.25648c-1.97749,-3.96431 -10.47076,-12.23114 -14.63962,-14.24793c-2.06539,-0.99968 -3.10882,-1.22652 -6.32175,-1.37396c-2.11643,-0.09721 -4.48602,-0.10005 -5.26576,-0.00689M55.84064,231.62917c-9.50307,3.58639 -17.84363,10.06894 -23.26655,18.08383c-7.63332,11.28168 -9.82145,28.57889 -4.84976,38.33958c3.4515,6.77663 12.50375,10.40635 29.10182,11.66933c6.94392,0.5282 31.3503,0.26248 41.11342,-0.44759c11.78679,-0.8571 19.05516,-2.40443 22.79466,-4.85219c2.84675,-1.86408 4.07246,-3.15662 5.93735,-6.26261c3.42477,-5.70444 1.10743,-8.64111 -7.83302,-9.92636c-4.16035,-0.59787 -9.5456,-2.12413 -12.14851,-3.4434c-6.53319,-3.31054 -6.53562,-9.11705 -0.01053,-23.71698c3.42841,-7.67181 4.9567,-11.64097 4.71974,-12.25909c-0.56263,-1.46591 -13.29523,-7.06381 -16.94926,-7.45145c-2.09456,-0.22238 -2.59399,-0.09478 -6.33106,1.61821c-8.67838,3.97808 -13.92955,3.99023 -21.85614,0.05023c-2.49556,-1.24069 -5.13857,-2.33638 -5.87335,-2.43481c-0.86399,-0.11625 -2.47005,0.24871 -4.54881,1.0333"/></g></svg>