<svg id="svg" version="1.1" viewBox="0 0 212.3401083450856 300" width="212.3401083450856" height="300" xmlns="http://www.w3.org/2000/svg">
  <g xmlns="http://www.w3.org/2000/svg" id="svg" fill="#000000" fill-rule="evenodd" stroke="none" stroke-width="1" stroke-linecap="butt" stroke-linejoin="miter" stroke-miterlimit="10" stroke-dasharray="" stroke-dashoffset="0" font-family="none" font-weight="none" font-size="none" text-anchor="none" style="mix-blend-mode: normal">
    <path d="M85.47901,0.26362c-18.85009,2.76289 -33.02408,19.43731 -31.53142,37.09591c1.17116,13.85971 8.97495,25.07266 37.82026,54.3405c8.48484,8.61016 18.87634,18.88487 23.09251,22.83269l7.66535,7.17918l22.57484,-22.50464c35.07508,-34.96617 43.14854,-45.71197 45.24154,-60.21532c1.37259,-9.51559 -1.92962,-19.28313 -9.09568,-26.90124c-11.48786,-12.21221 -29.17533,-15.58331 -42.22998,-8.04984c-3.50954,2.02542 -10.33376,8.4212 -12.83224,12.02587c-1.4651,2.11465 -2.16648,2.56999 -3.95635,2.56999c-1.82005,0 -2.48994,-0.45534 -4.10004,-2.78848c-2.5759,-3.73262 -8.93034,-9.69865 -12.57307,-11.80411c-5.42539,-3.13687 -13.75932,-4.70563 -20.07571,-3.78052M165.91701,88.61039c-5.23249,5.63731 -9.58251,10.43087 -9.66584,10.65263c-0.08398,0.22177 1.94931,1.87976 4.51799,3.68407c11.09485,7.79264 21.88592,19.91562 26.75887,30.06042c3.7464,7.80117 4.86966,12.64065 4.9005,21.1163c0.0374,10.29177 -2.43286,17.8364 -9.02219,27.5567c-5.57105,8.21846 -20.35915,21.32363 -24.06093,21.32363c-1.56876,0 -2.42236,-1.00582 -7.10241,-8.36543c-2.9256,-4.60066 -5.90632,-9.10355 -6.62345,-10.00571l-1.30501,-1.64028l-1.17247,1.62256c-6.6018,9.13439 -21.17273,37.66082 -24.76494,48.48273c-0.95202,2.86852 -1.00844,3.62108 -0.30312,4.05674c3.71491,2.29574 45.25531,5.94897 55.35222,4.86769c4.93002,-0.52817 4.96611,0.49733 -0.37464,-10.64213c-2.1199,-4.42088 -3.854,-8.61081 -3.854,-9.31154c0,-0.81817 2.17829,-3.02599 6.08281,-6.16614c21.64644,-17.41058 34.0358,-38.67123 36.66878,-62.92703c2.70318,-24.89682 -8.74269,-51.30335 -30.28022,-69.86016c-3.04633,-2.6251 -5.69636,-4.76862 -5.8886,-4.76337c-0.19224,0.00459 -4.63084,4.621 -9.86333,10.25831M63.33065,115.46833c-8.76369,2.12121 -18.75627,9.38568 -23.3064,16.94343c-4.41432,7.33139 -5.56711,11.59218 -5.60648,20.72789c-0.02887,6.67528 0.24473,9.17572 1.47231,13.43848c6.93248,24.06881 25.08578,40.90201 40.66581,37.70675c4.97005,-1.0196 9.71702,-3.39932 14.1648,-7.10044c10.91639,-9.08387 19.53573,-26.48855 20.54155,-41.47545c1.25842,-18.76349 -11.10797,-35.57766 -29.62935,-40.28592c-4.80077,-1.22037 -13.15964,-1.20003 -18.30224,0.04527M45.02709,204.92852c-19.0489,6.21732 -33.66904,19.08826 -40.28264,35.46022c-6.03492,14.94098 -6.34723,33.61327 -0.73813,44.14911c4.68136,8.79387 13.63204,13.22065 30.16671,14.92064c9.78066,1.00516 78.59367,0.50127 83.84781,-0.61412c15.19227,-3.2261 22.23169,-8.68955 25.74255,-19.97926c1.181,-3.79626 1.45657,-6.27309 1.46969,-13.20228c0.00919,-4.6912 -0.38383,-10.50894 -0.87263,-12.92803l-0.88838,-4.39923l-2.72024,-0.31887c-18.09032,-2.11924 -25.34298,-3.70638 -28.636,-6.26718c-1.41851,-1.10358 -1.62388,-1.74591 -1.52087,-4.75681c0.12597,-3.68604 2.20322,-10.09887 5.89582,-18.20185l2.23997,-4.91493l-1.50315,-1.16066c-2.62248,-2.02542 -11.80411,-6.23766 -17.45454,-8.00719l-5.45426,-1.70852l-2.10809,1.60813c-6.42202,4.89853 -16.21384,7.46196 -23.89034,6.25471c-4.6912,-0.73813 -11.52985,-3.58303 -15.03021,-6.25209c-1.15804,-0.88378 -2.19863,-1.59501 -2.31279,-1.58123c-0.11416,0.01378 -2.79241,0.86869 -5.95028,1.89944"/>
  </g>
</svg>