<svg id="svg" version="1.1" viewBox="0 0 213.85733047203308 300" width="213.85733047203308" height="300" xmlns="http://www.w3.org/2000/svg"><g xmlns="http://www.w3.org/2000/svg" id="svg" fill="#000000" fill-rule="evenodd" stroke="none" stroke-width="1" stroke-linecap="butt" stroke-linejoin="miter" stroke-miterlimit="10" stroke-dasharray="" stroke-dashoffset="0" font-family="none" font-weight="none" font-size="none" text-anchor="none" style="mix-blend-mode: normal"><path d="M94.29357,0.21884c-2.38454,0.38688 -7.91157,2.40991 -10.90763,3.99239c-8.16533,4.31313 -13.86001,11.6061 -15.51404,19.86877c-0.94059,4.69918 -1.24177,12.53462 -0.62234,16.19546c0.42932,2.53971 0.75172,3.31805 1.76469,4.26446c1.29211,1.20724 5.57321,2.70444 10.92718,3.82225c6.44557,1.34577 13.31837,3.20781 15.07058,4.08308c5.70633,2.84963 5.66764,6.25005 -0.22007,19.3209l-2.09208,4.64427l19.05424,18.74847l19.05424,18.74806l5.51788,-5.71257c3.03475,-3.14208 10.59063,-10.8652 16.79118,-17.16267c15.39049,-15.6326 28.97802,-30.72815 34.25253,-38.0544c3.75777,-5.22002 5.86774,-11.57324 6.22758,-18.75388c0.67809,-13.53261 -5.4925,-24.81049 -16.53908,-30.22936c-6.13731,-3.01104 -8.65497,-3.71325 -14.12417,-3.93998c-5.49458,-0.22797 -8.69033,0.35152 -13.45981,2.44111c-4.62222,2.02469 -7.50513,4.18833 -13.64702,10.24119c-3.12544,3.08009 -5.87273,5.48252 -6.10528,5.33858c-0.23255,-0.14352 -1.44728,-1.70936 -2.69945,-3.47946c-5.32111,-7.52302 -12.33036,-12.30457 -20.6076,-14.05886c-2.5318,-0.53665 -9.62675,-0.7226 -12.12153,-0.31783M37.301,51.29251c0,0.10317 0.67393,2.0222 1.4972,4.26404c4.33185,11.79413 4.95794,14.44491 3.77815,15.99578c-0.28746,0.37773 -1.53214,1.28171 -2.76601,2.0093c-3.94247,2.32463 -7.14404,5.01285 -13.35873,11.21714c-11.06446,11.04574 -18.12197,21.21413 -23.01418,33.15886c-2.14617,5.23999 -2.97277,9.42041 -3.35965,16.99252c-0.31117,6.08947 0.35152,18.55212 1.27214,23.92024c1.37531,8.01973 4.77781,16.27575 9.94333,24.12824c3.30016,5.01618 9.06099,11.88441 10.66385,12.71309c1.18062,0.61069 1.26673,0.59156 2.15074,-0.47258c3.712,-4.46872 7.53051,-7.8084 14.23317,-12.44934c1.60162,-1.10907 3.33469,-2.39202 3.85095,-2.85129l0.93934,-0.8345l-5.35439,-5.22876c-5.91308,-5.77455 -8.85423,-9.524 -12.3054,-15.68627c-10.60519,-18.93609 -8.91705,-36.70238 5.0869,-53.53599c5.15429,-6.19638 18.66694,-16.89476 21.36348,-16.91431c1.02462,-0.00749 2.65203,2.05964 6.8753,8.73318c4.17294,6.5945 6.30579,9.04726 7.3562,8.45986c2.51225,-1.40609 16.50829,-22.95677 23.05703,-35.50221c4.19998,-8.04594 4.52155,-10.02653 1.84664,-11.38021c-1.98767,-1.0059 -9.26857,-2.70403 -15.27567,-3.56266c-13.60874,-1.94482 -38.48038,-3.99655 -38.48038,-3.17411M180.04325,74.43357c-1.99765,0.79956 -4.29358,3.06928 -10.52532,10.40593c-3.5065,4.12843 -6.42602,7.64491 -6.48758,7.81464c-0.06198,0.16931 3.19824,3.29226 7.2443,6.93978c11.99215,10.81112 17.76255,18.04252 21.81775,27.34104c2.38786,5.47586 3.3039,9.55978 3.56682,15.89926c0.1872,4.52571 0.07779,6.11484 -0.67185,9.73866c-2.12453,10.27073 -8.67077,20.63173 -18.43606,29.17978c-4.15505,3.63671 -9.56934,7.46603 -10.55694,7.46603c-1.12571,0 -5.04405,-4.17211 -8.12581,-8.65247c-3.41498,-4.96459 -5.79785,-7.57169 -6.92064,-7.57169c-1.85829,0 -5.94886,6.27293 -12.56457,19.26848c-6.97805,13.70734 -12.05746,25.85799 -12.05746,28.84323c0,0.67226 0.32823,1.12196 1.0059,1.37989c1.05249,0.4002 15.87139,2.2094 23.74635,2.89913c7.89285,0.6914 21.88931,1.34369 25.79226,1.20184l3.74404,-0.13603l-0.10275,-1.65694c-0.13978,-2.25516 -1.0579,-4.93215 -3.69661,-10.77992c-1.22804,-2.72192 -2.23269,-5.14015 -2.23269,-5.37394c0,-0.23421 4.08017,-4.55941 9.06723,-9.61136c12.91027,-13.07917 17.53291,-19.07961 22.92848,-29.75927c6.76298,-13.38785 7.25594,-15.5856 7.27841,-32.46746c0.0183,-13.68404 -0.24794,-16.45213 -2.13493,-22.20131c-4.04481,-12.31955 -18.64198,-33.15511 -27.30651,-38.97626c-2.59379,-1.74306 -2.83174,-1.80754 -4.37179,-1.19102M52.50138,185.49544c-6.6465,1.03793 -11.90937,3.58845 -16.81988,8.15035c-7.21476,6.70224 -11.27662,15.94169 -11.27662,25.64915c0,7.68776 2.97693,14.78271 10.33354,24.62828c6.96932,9.32723 13.39159,16.26576 39.35233,42.51604c7.07789,7.15735 13.01552,13.2489 13.1944,13.53677c0.37524,0.60445 11.57282,-10.2857 26.83726,-26.10052c12.02086,-12.45475 15.81814,-16.69716 25.6895,-28.70429c4.32603,-5.26245 8.42783,-10.17047 9.11465,-10.9068c0.92852,-0.99508 1.09783,-1.38862 0.6602,-1.53339c-0.32365,-0.10691 -3.86468,-0.77585 -7.86872,-1.48638c-10.01114,-1.77675 -17.61029,-3.64919 -19.22563,-4.73787c-1.74888,-1.17854 -2.39286,-2.49977 -2.40034,-4.92341c-0.01373,-4.27735 1.76885,-9.47741 8.07422,-23.55332c1.97976,-4.42004 3.70327,-8.55263 3.82932,-9.18329c0.22506,-1.12612 0.17306,-1.1594 -2.82425,-1.81253c-1.67941,-0.36608 -4.98456,-0.89732 -7.34539,-1.1802c-9.7033,-1.16398 -17.60446,1.72434 -25.07007,9.16416c-5.2766,5.25829 -12.86243,16.34938 -12.86243,18.8063c0,2.01679 4.15547,7.13364 16.93802,20.85678c4.2162,4.52654 7.6058,8.40037 7.53217,8.60796c-0.37357,1.05332 -25.72403,28.43097 -26.03645,28.11855c-0.1065,-0.1065 2.54262,-5.74543 5.88646,-12.53171c3.34384,-6.78586 6.0799,-12.53753 6.0799,-12.78131c0,-0.6993 -14.18117,-16.77745 -21.96211,-24.8991l-3.86551,-4.03524l3.39709,-6.3216c3.80103,-7.0729 6.42768,-12.87866 6.85325,-15.14879c0.21923,-1.16814 0.10691,-1.71227 -0.49338,-2.3887c-1.97893,-2.2302 -9.19161,-5.77164 -14.61839,-7.17815c-3.27562,-0.84865 -7.98437,-1.11489 -11.10315,-0.62775"/></g></svg>