<svg id="svg" version="1.1" viewBox="0 0 247.27183296536273 300" width="247.27183296536273" height="300" xmlns="http://www.w3.org/2000/svg"><g xmlns="http://www.w3.org/2000/svg" id="svg" fill="#000000" fill-rule="evenodd" stroke="none" stroke-width="1" stroke-linecap="butt" stroke-linejoin="miter" stroke-miterlimit="10" stroke-dasharray="" stroke-dashoffset="0" font-family="none" font-weight="none" font-size="none" text-anchor="none" style="mix-blend-mode: normal"><path d="M143.20807,1.06227c-9.34638,3.32819 -16.31445,9.39339 -21.00501,18.2824c-1.36236,2.58243 -2.02935,4.4606 -2.35968,6.64537c-0.65217,4.31323 -0.57044,12.93925 0.16177,17.13941c2.31394,13.26957 11.24615,27.24807 20.47988,32.05212c4.40555,2.29192 7.82013,3.13847 12.78468,3.16896c3.9016,0.02414 4.12858,-0.02795 7.09046,-1.62789c9.06391,-4.89552 16.96493,-13.59227 20.86864,-22.96914c1.80067,-4.32551 2.76792,-8.36135 3.37393,-14.0814c0.90711,-8.55827 -0.10926,-15.42386 -3.25239,-21.97395c-4.08073,-8.50364 -12.29132,-14.12079 -24.18201,-16.54398c-7.43349,-1.51482 -9.91767,-1.53133 -13.96028,-0.0919M124.8884,79.22292c-1.74689,0.75974 -4.22429,1.91671 -5.50534,2.571c-10.04005,5.13013 -19.51941,14.74035 -24.68342,25.02433l-1.49999,2.98728l8.32747,4.15103c9.83847,4.90442 13.20732,7.04896 16.17851,10.30008c3.38833,3.70764 3.39129,3.72881 1.03246,7.7528c-3.93251,6.70763 -10.39536,14.06023 -16.92978,19.26066c-2.84669,2.26524 -3.18251,2.65781 -2.90132,3.39087c0.31084,0.80971 6.38196,3.48319 10.10061,4.44789c5.225,1.35559 13.71635,1.70073 41.92532,1.70412c37.51215,0.00423 42.23319,-0.39766 50.5975,-4.30857c5.87124,-2.74547 7.51988,-3.98587 8.87758,-6.67925c1.63466,-3.24138 3.6204,-9.33622 4.29247,-13.17429c0.77075,-4.40216 0.67758,-12.53525 -0.1965,-17.15127c-2.84584,-15.03128 -14.33126,-29.72844 -28.7434,-36.78163c-4.86884,-2.38254 -11.413,-4.60924 -13.65325,-4.64482c-1.20694,-0.01948 -3.19352,0.66615 -6.90963,2.38424c-7.84681,3.62802 -8.68108,3.84019 -13.97722,3.55222c-4.24462,-0.23038 -8.04458,-1.04602 -9.14988,-1.96287c-1.20144,-0.99731 -5.93815,-3.04488 -8.36855,-3.61786c-3.80081,-0.8961 -5.21907,-0.76863 -8.81363,0.79404M67.61927,116.64486l-0.11349,9.96679l-4.23488,1.1629c-11.82125,3.24561 -21.33575,7.80488 -29.00893,13.90015c-12.44758,9.88802 -21.68513,22.45376 -25.77772,35.06566c-2.08102,6.41161 -2.75818,11.02255 -2.75775,18.77534c0.00042,7.72908 0.75804,12.83465 3.11475,20.99061c1.38226,4.78414 5.4469,15.42936 5.89114,15.42936c0.14737,0 4.32508,-4.05998 9.28328,-9.02199l9.01479,-9.02241l-1.3361,-2.94112c-6.974,-15.35441 -7.22301,-29.70515 -0.74153,-42.73587c2.23051,-4.48389 3.99815,-6.81816 7.85401,-10.37122c8.64805,-7.96835 18.14731,-12.12023 30.44879,-13.30769l2.17376,-0.21005l2.41261,9.92614c1.32721,5.45918 2.52399,9.92614 2.6595,9.92614c0.49717,0 8.53286,-6.21257 14.47228,-11.18898c7.10952,-5.95636 21.25486,-19.97847 22.23228,-22.03789c1.19551,-2.51891 0.95666,-3.00507 -2.39864,-4.88282c-9.41033,-5.26692 -25.71335,-12.81009 -36.62409,-16.9446l-6.45057,-2.4448l-0.11349,9.96637M82.5396,176.94194c-8.79119,5.06703 -8.61544,4.91288 -29.67211,26.07119c-11.07887,11.13265 -26.40152,26.7204 -34.05098,34.63963c-13.02607,13.4864 -14.01025,14.6133 -15.53269,17.7865c-3.72034,7.75491 -4.27469,15.41242 -1.6876,23.32869c2.51298,7.6897 5.4901,11.47907 12.86472,16.37501c3.71695,2.46724 6.59921,3.58991 11.46636,4.4661c6.2456,1.12436 13.1925,-0.18295 20.40408,-3.83934c2.72133,-1.37972 5.15089,-3.70086 29.6484,-28.32754c14.6764,-14.7539 30.61183,-30.92225 35.41249,-35.93c7.74517,-8.0793 8.93517,-9.51069 10.56179,-12.70464l1.83328,-3.59965l-0.01059,-6.77581c-0.00805,-5.49772 -0.18337,-7.47838 -0.92786,-10.50039c-1.41572,-5.74462 -3.51199,-9.61868 -7.25943,-13.41652c-5.89453,-5.9733 -12.71438,-8.44181 -24.15661,-8.74291l-6.56406,-0.17278l-2.32918,1.34246M180.4331,177.17782c-2.14751,1.52922 -2.40795,1.92984 -5.17756,7.96242c-1.60375,3.49378 -2.97585,6.51748 -3.04869,6.71948c-0.07284,0.202 -7.46186,1.74943 -16.42033,3.43872c-15.95025,3.00761 -18.96718,3.80419 -22.70108,5.99236c-1.8409,1.07862 -1.84471,1.08667 -1.84471,3.53528c0,3.17616 -1.02018,8.64763 -2.40965,12.92274c-2.52399,7.7655 -3.3337,8.89748 -14.4113,20.14363l-6.49334,6.59159l0.44805,5.89876c1.07862,14.21226 4.87562,24.2214 12.10329,31.90432c9.90284,10.52707 22.2399,15.29258 43.96229,16.98187c18.10496,1.4081 38.78939,-0.22995 56.28241,-4.45764c9.45861,-2.28556 15.76561,-6.93504 19.72099,-14.5375c3.55645,-6.83637 6.81392,-23.13176 6.82832,-34.16236c0.00889,-6.61192 -1.39497,-14.27748 -3.68181,-20.10467c-3.73686,-9.52213 -11.61331,-17.82673 -21.68005,-22.85988c-8.4596,-4.22938 -20.81783,-7.44323 -31.95556,-8.31011l-3.75083,-0.29178l0.24605,-1.52625c0.19946,-1.23616 1.07397,-2.33511 4.59781,-5.77765c2.39355,-2.3385 5.28301,-5.01791 6.42135,-5.95424c1.904,-1.56648 2.02808,-1.78034 1.55166,-2.67009c-1.01722,-1.90104 -3.88423,-2.6955 -10.39367,-2.88057l-5.93222,-0.16812l-2.26143,1.60968M99.47912,185.58194c5.82296,1.74477 10.3763,5.34696 12.67457,10.02693c2.40668,4.90018 3.29304,13.38434 1.89638,18.14562c-1.38311,4.71469 -2.50663,6.01734 -19.86286,23.04156l-16.72947,16.40931l-4.97598,-4.66387c-9.34299,-8.75689 -24.87569,-25.10395 -24.60211,-25.89206c0.24647,-0.71019 14.05811,-15.41581 23.43752,-24.95446c8.47696,-8.62095 9.08128,-9.14141 12.91639,-11.12757l4.02314,-2.08314l4.44662,0.19989c2.44564,0.10968 5.49476,0.51369 6.77581,0.89779M149.5227,224.32347c4.20058,3.55391 11.52607,8.82549 16.46649,11.85004l3.5772,2.18986l-7.62278,-0.22487c-5.034,-0.14822 -9.26465,-0.52682 -12.4569,-1.1142c-5.89072,-1.08371 -12.84016,-2.95722 -13.26365,-3.57551c-0.81818,-1.19551 -0.26087,-3.09993 1.6876,-5.76367c4.31661,-5.90215 4.76212,-6.33665 6.50096,-6.33665c1.35897,0 2.11448,0.43958 5.11108,2.975M211.57175,222.42074c2.56718,1.27936 6.09442,4.87901 7.38605,7.53766c0.85926,1.76849 0.88001,1.99166 0.27061,2.92122c-0.73983,1.12944 -5.45961,2.66586 -12.81856,4.17347c-4.69564,0.96174 -19.84041,1.69353 -19.05696,0.92024c0.23292,-0.22953 2.2339,-1.70666 4.44662,-3.28246c5.00563,-3.56492 9.902,-7.39156 13.76336,-10.75617c1.63043,-1.4208 3.16515,-2.58412 3.41077,-2.58497c0.2452,-0.00042 1.41445,0.48151 2.5981,1.071M145.89765,257.46988c0.25833,0.15161 2.59979,-0.69156 5.20255,-1.87309l4.73248,-2.14878l2.31182,1.40132c1.27131,0.77032 3.54798,2.51637 5.05856,3.88l2.74674,2.4791l1.80829,-1.23362c3.01862,-2.05942 8.62645,-5.17079 9.31928,-5.17079c0.90288,0 5.84329,2.34782 9.57464,4.54953l3.1101,1.83582l2.60699,-2.26566c3.29431,-2.86363 6.63775,-5.39016 7.13239,-5.39016c0.20963,0 2.21018,0.68478 4.44493,1.52202c4.80066,1.79813 4.02652,2.0319 10.80403,-3.26298c2.63325,-2.05688 4.88451,-3.74575 5.00309,-3.7521c0.119,-0.00678 0.43026,0.33074 0.69198,0.75c0.37479,0.60008 0.01228,2.78528 -1.702,10.26239l-2.178,9.49968l-7.40681,0.0072c-4.07395,0.00423 -7.64819,0.16347 -7.94294,0.35446c-0.29475,0.19057 -2.44649,2.71541 -4.78118,5.61122c-2.33511,2.89539 -4.38903,5.26438 -4.56435,5.26438c-0.17575,0 -2.40711,-0.83597 -4.95905,-1.85784c-2.55236,-1.02145 -5.72937,-2.1979 -7.06039,-2.61334l-2.42023,-0.75593l-3.08511,1.18238c-1.69692,0.65005 -4.28273,1.82608 -5.74631,2.61334c-1.464,0.78726 -2.85389,1.43139 -3.08935,1.43139c-0.23504,0 -2.57947,-1.80364 -5.20975,-4.00789l-4.78203,-4.00831l-4.4102,-0.42349c-3.95284,-0.37945 -8.84709,-1.13791 -9.09906,-1.40937c-0.44127,-0.47558 -8.65059,-21.13586 -8.65059,-21.77025c0,-0.1046 2.71583,1.88325 6.0347,4.4174c3.31888,2.53373 6.24603,4.73078 6.50478,4.88197"/></g></svg>