<?xml version="1.0" encoding="UTF-8" standalone="no"?>
<svg
   id="emoji"
   viewBox="0 0 51.79475 51.778599"
   version="1.1"
   sodipodi:docname="medicine.svg"
   width="51.79475"
   height="51.778599"
   inkscape:version="1.4.2 (f4327f4, 2025-05-13)"
   xmlns:inkscape="http://www.inkscape.org/namespaces/inkscape"
   xmlns:sodipodi="http://sodipodi.sourceforge.net/DTD/sodipodi-0.dtd"
   xmlns="http://www.w3.org/2000/svg"
   xmlns:svg="http://www.w3.org/2000/svg">
  <defs
     id="defs1" />
  <sodipodi:namedview
     id="namedview1"
     pagecolor="#ffffff"
     bordercolor="#000000"
     borderopacity="0.25"
     inkscape:showpageshadow="2"
     inkscape:pageopacity="0.0"
     inkscape:pagecheckerboard="0"
     inkscape:deskcolor="#d1d1d1"
     inkscape:zoom="12.604167"
     inkscape:cx="32.647934"
     inkscape:cy="36.416529"
     inkscape:window-width="1916"
     inkscape:window-height="2041"
     inkscape:window-x="-9"
     inkscape:window-y="0"
     inkscape:window-maximized="0"
     inkscape:current-layer="emoji" />
  <g
     id="line"
     transform="translate(-9.880525,-10.2742)">
    <path
       fill="#000000"
       stroke="none"
       d="m 47.5877,12.2742 c 3.1001,0 6.2001,1.1759 8.5519,3.5276 v 0 c 4.7035,4.7035 4.7035,12.4002 0,17.1038 L 32.52,56.5251 c -2.3518,2.3518 -5.4518,3.5277 -8.5519,3.5277 -3.1001,0 -6.2001,-1.1759 -8.5519,-3.5277 v 0 c -4.7035,-4.7035 -4.7035,-12.4002 0,-17.1038 L 39.0357,15.8018 c 2.3518,-2.3518 5.4519,-3.5276 8.552,-3.5276 m 0,-2 c -3.7741,0 -7.3135,1.4608 -9.9661,4.1134 L 14.002,38.0071 c -5.4953,5.4953 -5.4953,14.4369 0,19.9322 2.6526,2.6526 6.192,4.1135 9.9661,4.1135 3.7741,0 7.3135,-1.4608 9.9661,-4.1134 L 57.5538,34.3199 c 5.4953,-5.4953 5.4953,-14.4369 0,-19.9322 -2.6526,-2.6527 -6.192,-4.1135 -9.9661,-4.1135 z"
       id="path1" />
    <line
       x1="28.5625"
       x2="41.421902"
       y1="30.4062"
       y2="43.265598"
       fill="none"
       stroke="#000000"
       stroke-linecap="round"
       stroke-miterlimit="10"
       stroke-width="2"
       id="line1" />
  </g>
</svg>
