<?xml version="1.0" encoding="UTF-8" standalone="no"?>
<svg
   id="emoji"
   viewBox="0 0 37.547768 49.999901"
   version="1.1"
   sodipodi:docname="green.svg"
   width="37.547768"
   height="49.999901"
   inkscape:version="1.4.2 (f4327f4, 2025-05-13)"
   xmlns:inkscape="http://www.inkscape.org/namespaces/inkscape"
   xmlns:sodipodi="http://sodipodi.sourceforge.net/DTD/sodipodi-0.dtd"
   xmlns="http://www.w3.org/2000/svg"
   xmlns:svg="http://www.w3.org/2000/svg">
  <defs
     id="defs3" />
  <sodipodi:namedview
     id="namedview3"
     pagecolor="#ffffff"
     bordercolor="#000000"
     borderopacity="0.25"
     inkscape:showpageshadow="2"
     inkscape:pageopacity="0.0"
     inkscape:pagecheckerboard="0"
     inkscape:deskcolor="#d1d1d1"
     inkscape:zoom="17.824983"
     inkscape:cx="25.189364"
     inkscape:cy="30.771417"
     inkscape:window-width="3840"
     inkscape:window-height="2054"
     inkscape:window-x="-11"
     inkscape:window-y="-11"
     inkscape:window-maximized="1"
     inkscape:current-layer="emoji" />
  <g
     id="line"
     transform="translate(-12.941976,-11.9584)">
    <path
       fill="none"
       stroke="#000000"
       stroke-linecap="round"
       stroke-linejoin="round"
       stroke-width="2"
       d="m 15.9828,60.9583 v -6.6977 c -0.2629,-0.3453 -0.499,-0.7102 -0.7064,-1.0915 -2.9194,-5.4055 -0.9057,-12.1542 4.4985,-15.076 1.8787,-1.081 3.8853,-1.9226 5.973,-2.5051 1.6178,-0.4154 3.0597,-1.3387 4.1139,-2.6342 1.1917,-1.3789 1.9035,-3.1075 2.0282,-4.9257 0,0 -0.093,-4.8372 2.14,-6.9767 0,0 -5.0232,-4.93 -5.2093,-8.093"
       id="path1" />
    <path
       fill="none"
       stroke="#000000"
       stroke-linecap="round"
       stroke-linejoin="round"
       stroke-width="2"
       d="m 34.4013,12.9584 c 0,0 3.2558,4.4651 10.7907,8.186 0,0 8.3721,6.0465 1.7674,20.5581 0,0 -2.9767,13.1163 -21.4883,13.4884 -1.6203,0.0202 -3.2391,-0.1044 -4.8372,-0.3721 v 6.1395"
       id="path2" />
    <path
       fill="none"
       stroke="#000000"
       stroke-linecap="round"
       stroke-linejoin="round"
       stroke-width="2"
       d="m 27.0619,46.6359 c -1.0568,0.0405 -1.9908,0.6989 -2.3842,1.6806 -0.3227,0.8809 -0.0785,1.875 2.1889,2.3285 2.9425,1.0829 6.24,0.498 8.6306,-1.5307 0.3101,-0.275 0.6582,-0.5038 1.0336,-0.6795 1.5761,-0.6397 2.989,-1.6243 4.1347,-2.8815 0.5267,-0.7065 0.3809,-1.7061 -0.3255,-2.2328 -0.0275,-0.0205 -0.0557,-0.0401 -0.0845,-0.0588 -1.6121,-1.0951 -3.7681,-0.9262 -5.19,0.4066 0,0 -2.2455,2.6438 -8.0036,2.9676 z"
       id="path3" />
  </g>
</svg>
