<svg id="svg" version="1.1" viewBox="0 0 300 266.5595158264539" width="300" height="266.5595158264539" xmlns="http://www.w3.org/2000/svg"><g xmlns="http://www.w3.org/2000/svg" id="svg" fill="#000000" fill-rule="evenodd" stroke="none" stroke-width="1" stroke-linecap="butt" stroke-linejoin="miter" stroke-miterlimit="10" stroke-dasharray="" stroke-dashoffset="0" font-family="none" font-weight="none" font-size="none" text-anchor="none" style="mix-blend-mode: normal"><path d="M72.78451,1.05848c-16.25664,4.63746 -26.72719,20.67439 -23.35078,35.764c1.44806,6.46873 6.4534,15.11618 13.64462,23.5705c5.60725,6.59136 44.78752,45.40884 45.87586,45.45074c0.36074,0.01328 8.09153,-7.21882 17.18045,-16.07065l16.52438,-16.09518l-4.63235,-5.57762c-6.26843,-7.54583 -9.25345,-13.35747 -8.45738,-16.46613c0.36176,-1.41229 2.52413,-3.66664 5.01863,-5.23017c3.87511,-2.42807 22.54756,-10.15069 30.93749,-12.79439c3.80562,-1.19871 4.35336,-4.25628 2.13274,-11.8951c-4.02328,-13.84083 -20.9084,-23.83006 -35.60049,-21.06169c-6.19486,1.16703 -14.32726,6.40128 -18.13901,11.67437c-1.40513,1.94368 -3.19042,3.79131 -3.96708,4.10402c-0.85739,0.34541 -3.67072,-1.8323 -7.15341,-5.53674c-8.80892,-9.37097 -19.43582,-12.85366 -30.01368,-9.83594M221.06862,5.0368c-5.03191,1.88033 -8.99388,5.12082 -12.36723,10.11493c-2.69275,3.98752 -3.27013,6.43194 -2.8399,12.02897c0.47315,6.17033 6.79779,10.45114 12.15978,8.23051c3.92109,-1.62382 5.28739,-4.99104 4.55161,-11.2094c-0.56819,-4.79483 -0.4384,-5.19133 2.08267,-6.33997c3.71977,-1.69434 9.28309,0.09913 14.70639,4.74169c14.28639,12.22825 18.07259,49.94922 7.63167,76.02954c-5.45805,13.63338 -19.87627,31.73969 -33.54951,42.12849c-2.87056,2.18179 -11.14604,7.53868 -18.38734,11.90532l-13.16841,7.93722l0.31884,4.05599c1.4593,18.5907 10.65041,35.21523 23.827,43.10136c7.97606,4.77337 15.87649,6.57705 28.96519,6.61282l11.22575,0.03066l6.39413,-6.74976c6.32873,-6.68027 6.44931,-6.74873 11.8624,-6.74873c11.66619,0 20.57424,-8.81198 20.57424,-20.3535c0,-4.08664 -0.64994,-6.85093 -2.24617,-9.55594l-2.24515,-3.80562l3.37845,-8.7384c3.08312,-7.97606 3.74737,-8.92133 7.60306,-10.82925c9.46601,-4.68344 11.2983,-16.08394 3.89043,-24.21021c-1.94777,-2.13683 -2.13376,-3.34064 -1.80675,-11.657c0.29022,-7.39152 0.76133,-9.70003 2.32384,-11.37699c5.55514,-5.96288 4.5465,-15.16217 -2.18179,-19.89058c-3.2548,-2.28705 -4.20927,-3.85671 -5.95777,-9.79915c-2.0612,-7.00421 -2.06223,-7.1013 -0.10424,-9.59068c4.65278,-5.91485 -0.28511,-15.52393 -7.97708,-15.52393c-1.27024,0 -2.79596,-1.86398 -4.69468,-5.73602c-2.30953,-4.70899 -2.69275,-6.53515 -2.14296,-10.2069c0.62235,-4.15 0.41285,-4.72943 -2.91757,-8.05985c-2.32179,-2.32179 -4.55775,-3.58897 -6.33179,-3.58897c-1.6831,0 -4.98286,-1.73726 -8.533,-4.49132c-9.12265,-7.07779 -13.90623,-9.08177 -22.65179,-9.49054c-4.81731,-0.22482 -9.04907,0.15942 -11.39232,1.0352M180.54454,35.92728c-12.76373,3.43466 -40.06013,13.55163 -43.65115,16.17795c-1.84047,1.34484 -1.65346,1.78529 3.78926,8.9387c7.47327,9.82266 31.10917,33.93579 32.45095,33.10702c0.57432,-0.3546 2.26354,-4.64563 3.75452,-9.53652c1.492,-4.89089 3.35597,-9.41491 4.14285,-10.05463c3.04531,-2.47304 16.99447,3.41116 27.09713,11.43115c9.51608,7.554 17.17943,21.11892 17.17943,30.40711c0,2.59873 0.2146,2.82764 1.58397,1.69025c2.85012,-2.36574 11.70094,-16.67052 11.70094,-18.9126c0,-3.12809 -7.20042,-13.84083 -13.53017,-20.12868c-7.67663,-7.62656 -16.04919,-13.3636 -28.11291,-19.26414c-12.32022,-6.02624 -11.78474,-4.44636 -7.85343,-23.14947c0.57534,-2.73771 -0.63154,-2.83786 -8.55139,-0.70614M43.71099,57.07175c-14.14128,21.11074 -16.27401,44.2551 -6.36756,69.0846c3.74839,9.39652 9.46192,18.42617 18.10222,28.61365c5.96492,7.03283 6.31646,7.72058 4.97673,9.73477c-0.79198,1.19258 -3.30794,4.92666 -5.5909,8.29898c-2.28194,3.37232 -3.83014,6.45544 -3.44079,6.8499c2.41785,2.4526 54.4109,6.26639 55.75574,4.08971c1.56762,-2.5364 -9.35769,-38.72245 -15.14071,-50.14645l-2.25843,-4.46066l-6.87954,8.03124c-3.78416,4.41672 -7.59284,8.42979 -8.46351,8.91724c-1.19258,0.66731 -2.98706,-0.59271 -7.26685,-5.10345c-10.23756,-10.78837 -16.17591,-22.17865 -18.10835,-34.72982c-1.42762,-9.2698 3.83832,-25.01446 10.72194,-32.05649c1.68923,-1.72806 3.07188,-3.55831 3.07188,-4.06723c0,-0.50789 -1.82514,-3.03305 -4.05701,-5.61134c-2.23084,-2.57829 -5.47236,-6.74465 -7.20246,-9.25958c-1.7301,-2.51494 -3.24254,-4.57205 -3.36006,-4.57205c-0.11752,0 -2.13989,2.87465 -4.49234,6.38698M102.64694,138.58795c-2.30544,1.42557 2.52311,12.48679 6.46873,14.81778c4.31249,2.54764 35.43903,27.66838 47.72348,38.515c6.02011,5.31601 9.7082,9.33009 9.7082,10.56763c0,1.56047 -1.55842,2.518 -7.15341,4.39424c-20.17467,6.76713 -64.02918,17.52791 -71.43398,17.52791c-5.9731,0 -24.36146,-13.79178 -44.8008,-33.6006c-12.62782,-12.23949 -18.14719,-19.3275 -18.14719,-23.30582c0,-3.0402 4.25117,-5.72273 13.79587,-8.7057c3.93438,-1.22937 7.49575,-2.51085 7.91372,-2.84706c0.41899,-0.33621 -0.50074,-2.06223 -2.04383,-3.83627l-2.80414,-3.22619l-18.02149,3.42035c-21.60842,4.10197 -22.04477,4.22971 -23.46933,6.89078c-1.36017,2.54253 -1.29783,2.60793 39.73619,42.03652c16.07883,15.44933 30.58902,28.55438 32.70132,29.5344c2.12559,0.98513 6.30829,1.77302 9.49667,1.78835c7.61225,0.03577 99.75945,-16.9076 102.80476,-18.9034c1.30601,-0.85534 2.37493,-2.4342 2.37493,-3.50926c0,-2.30953 -66.86499,-67.11332 -71.86216,-69.64767c-3.89043,-1.9723 -11.15728,-3.04122 -12.98753,-1.91098M0.87942,176.82908c-0.31066,0.80936 -0.18088,2.09799 0.28716,2.86443c1.74032,2.84604 68.40809,66.3663 71.22449,67.86136c6.51267,3.45816 11.38926,2.96253 61.96593,-6.30113c26.69756,-4.88885 49.60074,-9.55594 50.89551,-10.37143c3.41524,-2.14909 3.85773,-4.29103 1.39492,-6.75384l-2.15624,-2.15522l-48.82613,8.92235c-26.85493,4.90826 -50.92821,8.90498 -53.49527,8.88352c-2.56808,-0.02248 -7.06962,-0.75315 -10.00456,-1.62382c-4.87863,-1.44908 -8.05576,-4.20008 -37.17424,-32.19036c-17.51155,-16.83402 -32.22408,-30.60639 -32.69314,-30.60639c-0.47008,0 -1.10776,0.6622 -1.41842,1.47054M1.97185,192.99783c-0.35052,0.91155 -0.48337,2.27887 -0.29533,3.03713c0.28205,1.13535 36.74299,36.71336 64.30816,62.74974c10.99582,10.38573 8.81709,10.39084 66.54718,-0.13183c26.57697,-4.84388 49.82045,-9.279 51.65173,-9.85536c4.82447,-1.51652 5.94142,-4.21234 3.06064,-7.38641l-2.30238,-2.53742l-49.05197,9.14206c-52.97511,9.87273 -56.27079,10.17522 -65.64074,6.03033c-3.28444,-1.45316 -12.16182,-9.29433 -30.30594,-26.77216c-14.11368,-13.59353 -28.28766,-27.2402 -31.49852,-30.32536c-4.65381,-4.4719 -5.96595,-5.27309 -6.47282,-3.95073"/></g></svg>